<?xml version="1.0" encoding="UTF-8"?>
<svg id="_レイヤー_1" data-name="レイヤー_1" xmlns="http://www.w3.org/2000/svg" version="1.1" viewBox="0 0 48 48">
  <!-- Generator: Adobe Illustrator 30.1.0, SVG Export Plug-In . SVG Version: 2.1.1 Build 136)  -->
  <defs>
    <style>
      .st0 {
        fill: #4e8eb3;
      }

      .st1 {
        fill: #9fc5d7;
      }
    </style>
  </defs>
  <path class="st1" d="M27.55082,31.87694c-5.67758-.63437-10.42859-3.15218-12.85448-6.39829-.14708-.19681-.45407-.02064-.35374.20364,1.55195,3.46912,4.86296,6.95817,9.3587,9.43158,8.00086,4.40181,16.71563,3.91907,19.46497-1.07822,1.11594-2.02837,1.07391-4.48884.09907-6.9907-.05837-.1498-.25674-.18079-.35388-.05268-2.69968,3.56023-8.69415,5.62953-15.36064,4.88467Z"/>
  <path class="st0" d="M24.47154,5.43692c-6.1614,0-11.56368,2.72057-14.49891,6.3526-.15887.19659.08007.47091.30501.35565,2.67934-1.37285,6.10917-2.19707,9.84782-2.19707,8.57233,0,15.52157,4.33292,15.52157,9.67785,0,3.47069-2.93049,6.51419-7.33256,8.22209-.26897.10435-.15688.51076.12752.46228,7.19331-1.22612,12.35334-5.37496,12.35334-10.8205,0-6.38541-7.26193-12.05289-16.3238-12.05289Z"/>
  <ellipse class="st0" cx="25.83476" cy="18.19751" rx="2.09414" ry="2.78762" transform="translate(-.69513 35.36577) rotate(-68.06819)"/>
  <path class="st0" d="M21.87695,38.54834c.01607.04677,0,.10648-.0357.17503-1.35824,2.28429-3.82845,3.76156-6.53689,3.83409-3.57522.14128-6.30132-2.40438-8.02301-5.26805-3.59763-5.8935-4.41729-13.41201-1.55616-19.75064.08982-.19898.38734-.12588.37996.09231-.13999,4.13535.98479,8.49638,3.177,11.82676,2.8007,4.51342,7.38036,7.64894,12.58445,9.06803l.01034.02247Z"/>
</svg>