<?xml version="1.0" encoding="UTF-8"?>
<svg id="_レイヤー_1" xmlns="http://www.w3.org/2000/svg" version="1.1" viewBox="0 0 300 300">
  <!-- Generator: Adobe Illustrator 30.0.0, SVG Export Plug-In . SVG Version: 2.1.1 Build 123)  -->
  <path d="M52.74999,33.44999l-17.6,2.8-1.2.9,117.00001,114.2c1.5-3.10001,4.89999-5.10001,7.3-7.5,32.7-31.7,104-103.8,106.89999-107.6l-19.3-2.8,47.50002-18.8s-16.29999,33.8-21.60001,44.4l-3.10001-17.6-113.89999,114,63.7,64c8.3,2.60001,17.2,2.3,25.7,4s2.10001.3,3.2,1c1.60001,1.10001,3.7,4,5.10001,5.39999l-26.60001-4.2c-.8.60001,2,2.60001,2.3,2.8,5.60001,3,20.2,2.3,26.8,4.3,2.7.89999,5.39999,4.5,7.3,6.5l-27-4.2c.60001,1.7,2.2,2.8,3.89999,3.2,5.3,1.39999,23.5,2.3,26.70001,4.3s3.39999,4.2,5.60001,5.2v1l-27.3-4.7-.2.89999,3.39999,2,27,4.5,6.70001,6.5-30.10001-5.39999c4.5,5.89999,11,10.8,15.79999,16.39999s3.39999,4.3,3,4.7c-7.89999-4.3-13.8-11.60001-20.7-17.39999l5.39999,29.10001-6.60001-7-5.39999-28-2.10001-2.10001,4.5,27.29999-6-6c-1.5-7.2-2.5-14.60001-4-21.8-.7-3.2-.7-6.8-3.89999-8.39999l4.5,26.8c-.3.39999-5.39999-4.5-5.89999-5.60001-2.8-7.2-2.39999-18.7-5-26.10001s-1.60001-2.60001-2.8-2.60001l4.7,25.8c-1.60001-1.89999-5.8-4.2-6.5-6.5-2.5-8.3-2.39999-18.89999-5.10001-27.39999l-64.8-64.40001-65.1,65.10001-5.2,27.2c0,1.2-5.6,5.89999-6.1,5.39999l4.5-26.3-2.5,2.7-5.5,27.89999-5.9,5.60001c.2-1.60001.3-3.2.6-4.8,1.2-6.60001,3.1-13.3,4.1-19.89999s.2-2.3-.2-3c-1.1,1-1.9,1.7-2.4,3.3-2.3,7.7-2.5,20.10001-5.3,27.10001-2.8,7.00002-4.6,4.7-6.1,6.3l4.7-27.3-2.5,2.8-5.1,27-5.5,6.39999c-.8,0-1,.29999-.9-.70001,1-9.20001,4.3-18.7,5.1-28-5.1,3.89999-9.3,9.10001-14.3,13.10001s-5.5,4.39999-6.3,3.79999c.3-.79999.6-1.60001,1.2-2.39999,3.5-4.8,10.5-9.5,14.4-14.3l3.3-4-30.3,5.2,6.8-6.39999c7.1-1,14.2-1.8,21.3-3.2,3.9-.7,7.4-.8,10.2-3.89999-9.3.60001-18.7,3-28,4.39999-1.5.2.7-1.60001,1-1.89999,1.7-1.60001,3.6-3,5.3-4.60001l28.6-4.8,2.1-2.10001c-8.8.8-17.7,2.7-26.6,3.89999-.4,0-1.5.3-.9-.39999l6.4-5.8,26.9-3.7c.3-.39999,3.4-2.10001,2.7-2.7l-27.3,3.8,6.9-6,26.9-4.10001,64.8-64.39999L31.34999,41.44999c-1.1-.2-.6.5-.7,1.2-.5,5.2-1.1,10.4-1.9,15.5s-.2,1.4-.9.7c-2.8-5.7-4.9-11.8-7.6-17.6-4.3-9-9.7-17.5-13.6-26.6l46.1,18.8ZM54.14999,145.75c.3.2,1.1-.8,1.3-1.3,1.3-3.3,2.1-14.8,4.4-16.8s3.7-1.2,4.6,1c1.8,4.6,2.4,12.5,3.6,17.5s.5,2,1.7,1.8l3-25.4c3.2-5,7-3.2,6.9,2.6s-2.5,12.9-3.2,17.89999c-.7,5-1.5,11-2.3,16.5s.5,16.8-7.5,10.7l-3.9-19.89999c-1.1-.2-1.2.7-1.6,1.5-2.1,5.2-2.1,11.89999-3.9,17.3-3.4,4.2-6.4.7-7.4-3.3s0-4.3-.3-6.3c-1.5-11-4.6-24-5.2-34.8s3.5-9.1,6.4-3.5l3.5,24.5-.1.00002ZM153.75,61.14999c.89999-.4.89999-3.1.89999-4,.2-4.4-.89999-14.2.2-17.7,1.2-3.9,6.5-2.6,7.5.6s.60001,8.4.60001,10.9c.10001,10.5.7,25.2-.3,35.4-.3,3.5-2.60001,4.3-5.60001,2.8s-8.7-20.7-10.7-25,.3-1.3-1.10001-1l.39999,22.7c-.39999,4-5.89999,6.8-7.7,2.2-1.5-3.8-.2-10.9-.2-15.3,0-8.7.2-17.6,0-26.4s-1.89999-7.6,2.5-9.5c4.3.8,5.3,3.9,7,7.6s1.39999,3.5,2,5c1.60001,3.8,2.5,8,4.5,11.8l.00002-.09999ZM148.25,216.45c-3,3.3.3,8.7,2.60001,11.39999,7,7.8,11.3,7.7,9.89999,20.7-.8,7.60001-11.2,11.2-17.39999,7s-6.5-10.7-3.60001-13.2c5.60001-5.10001,5.7,5.2,7.5,6.8,3.2,2.60001,6-2.89999,6-5.7,0-6.39999-13.5-12.5-14.60001-20.2s1.10001-12.10001,7.2-14.8,11.3,0,13.39999,4.60001,2.10001,9.2-.3,10c-6.2,1.8-3.89999-5.8-6.7-7.2s-3.2-.10001-4.10001.89999l.10002-.3ZM236.14999,128.95c-1.89999,1.6-1.8,10.6-.7,12.9,1.10001,2.3,9.60001-.3,9.60001,5.1,0,4.60001-7,.8-9.39999,4.2s-1.3,10.5.2,12.5c2.3,2.8,8.89999.3,10.89999,2s2.39999,5.2-.7,5.89999-11.3.2-12.89999,0c-2.60001-.39999-4.7-1.2-5.5-3.89999.2-11.60001-1-23.2-.5-34.8s.7-3.2.8-4.8c.3-2.5-1.39999-4.6,2.7-5.8s7.39999-1.4,8.39999-1.4c1.8,0,7.39999,1.1,7.8,3.1,1.39999,7.2-8,2.8-10.7,5.1l-.00002-.09998Z"/>
</svg>