<?xml version="1.0" encoding="UTF-8"?>
<svg id="_レイヤー_1" data-name="レイヤー_1" xmlns="http://www.w3.org/2000/svg" version="1.1" viewBox="0 0 260 240">
  <!-- Generator: Adobe Illustrator 30.0.0, SVG Export Plug-In . SVG Version: 2.1.1 Build 123)  -->
  <path d="M208.45909,8.08082c-1.15424-.38477-1.46198.53864-1.84674.84644-14.54303,8.6181-37.70416,5.46326-52.47809-1.30811-1.84668-.84644-4.69379-2.92401-6.3866-3.46265-.46167-.15387-.76947,0-1.23114,0l.30774-.53864c-.92334-.53864-1.61591-.23083-1.07727.76947.07697.15393,1.00037.38477,1.2312.6925,2.77008,3.00098,5.61713,4.53992,9.46454,6.15582,13.23492,5.54022,31.62531,5.84796,45.39886,1.76978,1.15424-.3847,4.46295-2.07758,5.30939-1.69281l.53864.61554c-.27637,1.7132-1.46887,2.94568-2.82977,3.93433l1.4447.83643c2.84705-2.23151,3.23181-5.38629,2.15454-8.6181Z"/>
  <path d="M217.6928,208.45167l.23083-.30786c1.07721-9.07977,1.15417-18.23651,1.07721-27.31628,0-9.46454-.30774-19.15985-.84637-28.62439-.3078-4.77075-1.46204-10.54181-1.46204-15.15863,0-2.38538,2.23151-3.84735,1.15424-7.84863-.23083-.92334-1.00031-1.38507-1.38507-2.30841-.53864-1.30811-.3847-4.92462-.6156-6.6944-1.00031-7.69476-3.07788-18.00568-5.54016-25.31567-.69257-2.07758-2.61621-5.38629-3.00098-7.07916-.15387-.84644.07697-1.69281-.30774-2.53925-.38477-.76947-1.69287-1.07727-2.38538-2.07758-1.46204-2.30841-2.53931-7.69476-3.92432-10.69568-.84644-1.84674-2.15454-3.61652-3.07794-5.46326l-.53857.23083c.15387-.9234.6925-1.38507.84637-2.38538.3078-2.30841-.84637-6.07886-.15387-8.0025.23083-.69257.3078-.23083.46167,0,.76947,1.15417,1.00031,2.46228,1.38507,3.84735h1.07727c.15387-2.30841.15387-3.23181-1.2312-5.00159-.46167-.61554-1.07721-.3078-1.23114-1.53894-.3847-2.53925.53864-5.46326.3078-8.07947.23083-.76947,2.23145-1.69281,2.77008-2.38538,1.07727-1.46198.9234-3.92432.53864-5.69409,3.07788-.92334,5.07855-3.15485,5.07855-6.46356,4.30902-.84644,10.23401-2.92401,8.3103-8.54114-.53864-1.53894-1.07727-1.61591-2.46234-2.00067-3.46259-1.00031-7.15607-1.00031-10.69562-1.84674l3.61652-2.07758-.836-1.216c-.53192.38593-1.08661.73828-1.62634,1.06213-11.08044,6.30969-28.70135,3.61652-40.1665-.76947-5.46326-2.07758-12.46545-5.38629-17.54401-8.3103-.46167-.23083-2.61621-2.30841-2.61621-1.00031,0,.92334.38477,1.76978.3078,2.69312-1.61591-.30774-2.46228,1.2312-3.61652,2.00067.46167-2.46234-1.76978-4.30908-.84644-6.77136l.69257.84637c.30774.07697.53857-.23083.61554-.46167.23083-.6925.53864-4.77075,0-5.15546-1.53894-.07697-.92334,3.15485-1.15417,3.38568-1.30811-.46167-2.46234-1.07727-3.84741-1.30811-8.23334-1.53894-19.46765,2.69318-27.70099,3.30872-.9234,0-1.84674.46167-2.84705.3078-.69257-.07697-2.46234-3.61652-3.23181-2.84705,0,.6925.15387,1.46198.6156,2.07758.3847.6156.92334.53864,1.07727,1.00031-3.15485.46167-7.31,1.00031-9.5415,3.38568,4.23212-.15387,8.07947-2.30841,12.31158-2.53925l-2.30841,1.69281-1.23114,1.30811c-6.30969,1.00037-13.00415,1.07727-19.23688,2.38538-1.61584.3078-5.771,1.30811-6.92523,2.30841-.38477.3078-.07697.69257.15387.69257.2309,0,3.46265-.9234,3.69348-1.07727.53864-.3078.53864-.76947.69257-.84644,0,0,.92334.3078,1.46198.23083,2.92401-.23083,5.84802-1.07727,8.77197-1.38501,3.23181-.38477,6.46362-.46173,9.61841-.84644l-3.07788,3.84735c-2.07758-.3078-4.23206.38477-6.30963.6925-3.23181.38477-6.54053.23083-9.61847,1.46204v.84644l14.85083-1.38507c-.15387.53864-1.76978.76947-1.23114,1.69281,1.38507.07697,1.69287-1.30811,2.15454-1.61584,1.07727-.69257,12.54242-1.00037,14.9278-1.2312.46167,0,.84637-.15387,1.23114-.3078v-.84637l-13.46576.3078c.76947-1.00037,2.38531-3.53961,3.53955-3.84741l7.46387-.6925c8.31036-1.69287,16.69757-3.23181,25.23877-3.00098.84637.2309-.3078,1.61591-.69257,2.07758-4.38599,5.61719-19.08289,11.77295-26.00818,13.54279-9.07977,2.30841-29.23999,4.77069-37.85809,1.23114-3.69342-1.53894-2.07758-3.92432-1.23114-6.77136-3.38568.76947-3.61652,5.54022-1.30811,7.77167,6.84833,6.61749,26.00818,4.69379,34.78021,3.07788,9.07977-1.69281,17.92871-5.46326,25.93121-10.00311,1.69287-1.00037,2.92401-2.23151,5.00159-2.84711.23083,0,.6156-.46167.6925.15393.07697,1.30811-2.77008,3.84735-3.77039,4.61682-6.30969,5.07855-17.00537,10.54181-24.854,12.54242-1.69281.46167-3.61652.6156-5.30939,1.00031l.3078,1.69287-1.00031-1.38507c-5.84802.46167-11.77295,1.00031-17.62091.23083-5.54022-.6925-10.15704-2.84705-15.00476-5.54022-2.07758.15393-1.46198,3.15485-.23083,4.15515.38477.3078,1.00031.46173,1.23114.6156.23083.3078.07697,5.84802.07697,6.84833,0,1.84674.15387,3.61652.15387,5.30933,0,4.30908-.30774,8.69507-.15387,13.08105-3.15485-.23083-2.15454,2.77014.3078,3.07788-.76947.84644-.38477,2.07758-.3078,3.07794-3.15485.92334-6.07886,4.77069-7.6947,7.61774-1.2312,2.23151-2.77014,7.23309-3.92432,8.69507-.6156.76947-3.53961,2.07758-3.77045,2.69318-.3078.84637.3078,1.69281.15393,2.38538-.15393,1.23114-2.77014,6.54047-3.46265,8.38721-3.23181,9.00287-5.23242,19.23688-6.07886,28.77832,0,.6925.23083,1.69281.15393,2.15454-.07697.53864-1.00031,1.15417-1.30811,1.69281-1.07727,1.84674-.84644,4.69379-.76947,6.77136.0769,2.15454.23083,2.38538,0,4.77075-1.46204,17.08228-2.23151,34.31848-1.92371,51.32385.07697,5.61713.15393,11.23431.76947,16.85144-.23083,1.2312-3.23175,2.23151-4.30902,3.53961-3.38568,4.07819-3.38568,11.54211,1.00031,15.0047,4.38599,3.38568,12.61932,3.15485,18.08258,3.23181,6.07886.15393,12.23462,0,18.23651-.15393l46.96503.68622v2.77643c0,4.46295,3.61652,8.07947,8.07947,8.07947h1.07727c3.86652,0,7.0932-2.71619,7.88782-6.34381,1.36841-.02856,2.43695-.10431,2.54987-.27362.3078-.46167-.07697-1.61591.84644-1.84674l11.54205.15393c4.46295-.38477,9.31067-.07697,13.69666-.53864,2.77008-.3078,6.15576-2.15454,8.46417-2.23151,12.54242-.46167,25.62347.84644,38.16589,0,6.07886-.3847,11.31128-3.38568,11.61908-9.92621.23083-4.77075-1.69287-11.15735-7.6178-10.54175ZM199.14848,73.48603c.3847.92334,2.69312,7.46387,2.46228,7.77167l-4.23212-2.07758c-1.76978-5.07855-4.84766-9.61841-9.54144-12.38855,2.46228,0,5.00159-.84637,7.23303.53864,1.38507.84644,3.38568,4.61682,4.07825,6.15582ZM178.37267,67.33021c-.3078-.15387-1.15417-.3078-1.15417-.6925,1.46198.15387,3.15485-.15393,4.61682,0,4.84766.53864,9.84924,4.92462,11.84985,9.23364.15393.3078.6156.9234.2309,1.15424-1.539-.92334-4.69385-1.53894-6.00189-2.38538-.84644-.53864-2.23151-3.15485-3.23181-4.07819-1.84674-1.61591-4.15515-2.38538-6.30969-3.23181ZM183.37425,73.10126c-4.46295-1.53894-9.2337-2.15454-13.69659-3.53955-.53864-.15393-1.2312-.38477-1.46204-.9234,5.15546.23083,11.46515.3078,15.15863,4.46295ZM150.36388,47.55475c-1.38507-.6156-2.61621-3.53955-1.00031-4.61682l2.00061.15387c-.6156.76947-1.07727,1.92371-1.00031,2.92401,0,.3078.92334,1.92371,0,1.53894ZM147.74767,34.4737l-.3078-.6925,1.07727-.3078.6156-2.23145h.53864c.15387.15387.30774,1.15417,1.46198.53864-.76947,1.92365-2.00067,3.46259-.84644,5.61713-1.46198-.23083-2.61621-1.61591-2.00061-3.07788l-.53864.15387ZM149.05382,26.76447c-1.98083-.19885-1.51697-4.75623-.07501-4.75623l.92334.6925c-.99689,1.07355-1.07623,2.68182-.84833,4.06372ZM152.21001,32.42267c2.82306.99133,5.7207,1.98096,8.61871,2.74359,10.15704,2.84705,21.39136,5.15546,32.01007,5.07849,1.38507,0,2.61621-.6156,4.07819,0l-.53864.38477.53864,2.77008c-.3847,1.07727-5.92493,1.76978-7.0791,1.84674-9.31067.6156-28.08582-3.00098-36.78082-6.46356-2.80127-1.13568-2.47083-4.28027-.84705-6.36011ZM152.67229,43.32264v.07697c.46167.15387.84644.53864,1.23114.6156,10.23401,2.92395,19.39075,5.38629,30.16333,5.771,4.84772.15393,6.15582-.76947,10.31097-2.30841,1.46198-.53864,0,2.46234-.53864,3.07794-.46167.61554-1.69287,1.69281-2.46234,2.07758-4.46289,2.38531-17.31311.76947-22.39166-.15393-3.07788-.53864-14.23523-2.69318-16.08197-4.53986-1.23114-1.15424-1.92371-3.53961-.23083-4.61688ZM198.53288,37.16688l.07697-.07697c-5.15552.53864-10.31097.15393-15.46643-.76947l-.3078.53864c0-.23083,0-.46167-.23083-.53864-1.53894-.61554-5.00159-.84637-6.84833-1.23114-7.31-1.61591-17.15924-3.92432-23.9306-6.92523-.76947-.3078-1.84674-.69257-2.07758-1.61591-.15387-.69257.6156-4.07825,1.38507-3.92432,3.46265,1.46198,6.92523,3.00092,10.46484,4.15515,10.77258,3.46265,21.46826,4.92462,32.77954,5.69409,2.15454.15387,5.92493-.92334,6.6944,1.46198.53864,1.76984-.92334,2.92401-2.53925,3.23181ZM181.60448,23.31635l.07697.07697,13.31189,1.38507c4.61682-.07697,9.15668.0769,13.77356,0,1.23114,0,4.07819-1.07727,4.46295.76947.23083,1.00031-.84644,2.38531-1.76984,2.77008-2.07758.84644-6.61743,1.61591-8.9259,1.76978-2.53925.15393-5.30933-.3847-7.6947.23083.07697-.76947.76947-1.07727,1.00031-1.92365.23083-.84644.15393-1.69287.15393-2.53931-1.84674-.84637-2.53931,4.07825-3.00098,4.23212h-2.92401c1.15424-1.07727,3.30878-5.38629.23083-4.30902-.30774,1.38501-1.15417,3.00092-.84637,4.30902l-9.00287-1.69281c.84644-1.61591,1.30811-3.15485,1.15424-5.07855ZM146.0548,10.69703l.07697.0769h.3078c.76947.69257,1.92365.84644,2.69312,1.2312,2.23151,1.07721,4.30908,2.77008,6.46362,3.92426,4.15515,2.23151,8.84894,3.84741,13.38879,5.07855,1.30811.38477,6.84833,1.30811,7.38696,1.61591.3847.23083.23083.3847.15387.6925-.15387.53864-1.30811,3.00098-1.00031,3.38568,2.38538.38477,2.15454-2.00061,2.84705-3.61652h1.61591c.3847.3078-1.46198,3.92432-.84644,4.69379-8.23334-1.46198-16.62061-3.84735-24.16144-7.38696-2.00067-.92334-7.38696-3.30872-7.77167-5.46326-.15393-.6925,1.53894-3.15485.3847-3.15485-1.07727,0-1.69281,4.15515-.6925,5.07855-.6925.53864-1.76978-1.53894-1.92371-2.15454-.3847-1.76978.38477-2.53925,1.07727-4.00122ZM142.82298,51.55604h.00006c.76947,0,3.77039,1.53894,4.92462,1.84674,11.46515,3.38568,31.70227,6.61743,43.24438,4.07819,1.00031-.23083,1.92365-.53864,2.84705-.92334.15387,1.23114-1.2312,2.07758-2.15454,2.46228-5.77106,2.69318-25.85431.53864-32.70264-.6156-3.15479-.53857-13.77356-2.77008-15.92804-4.53986-.69257-.6156-1.46204-2.38538-.2309-2.30841ZM144.51585,67.17634c4.23212.15387,9.8493.3078,14.00446.84644,3.15485.3847,6.23273,1.61584,9.38751,2.00061-.15387.53864-.3847.53864-.84637.46167-1.00037-.07697-2.38538-.53864-3.53961-.6925-9.69537-1.15424-19.54462-1.2312-29.31689-1.46204v-1.15417h.07697c3.38562.07697,6.84827-.15393,10.23395,0ZM119.58495,7.15741c-4.61682,1.23114-9.77234,1.69287-14.46613,2.23151,4.07825-4.38605,10.08014-3.00098,15.46643-2.77014-.07697.53864-.6156.46167-1.00031.53864ZM132.28124,5.4646h-.07697c-1.07721,0-2.07758.46167-3.07788.53864-4.23206.30774-8.54114-.9234-12.77325-.84644l2.69318-.76947c4.69379-.15393,9.61841-1.46204,14.31219-1.15424,1.46198.07697,3.07788.3078,4.30902,1.15424l-.61554,1.53894c-1.61591-.23083-3.15485-.53864-4.77075-.46167ZM133.66631,26.70203l.0769-.07697c1.539-2.00061,3.61658-3.61652,3.38568-6.46356-.0769-.84644-1.07721-2.30841-1.07721-2.53925.15387-.76947,2.53925-3.15485,2.61615-4.38599.2309,2.07758.84644,3.77039,2.07758,5.46326-2.15448,1.84674-3.46259,3.00092-3.00092,6.15576.15387,1.23114.84644,1.84674,1.00031,3.00098-3.07788.84637-3.69348,5.23242-1.38501,7.31-1.46204,0-2.30847,1.15417-3.38568,2.00061l-1.15424-2.61621c2.46234-1.61591,3.77045-6.07886.84644-7.84863ZM130.66533,43.47657c.69257-.23083,2.61621-3.00098,3.07788-2.69318l1.15424,2.23151c-1.38507-.84644-3.07788,1.30811-4.07819,1.15417-.23083,0-.6156-.46167-.15393-.6925ZM131.89653,49.78626l1.23114,1.92365-3.92432.84644,2.69318-2.77008ZM101.27147,38.09028l.07697-.00006c6.15576-.76947,12.15765-2.00061,18.08264-3.69342.3847-.07697.76947-.23083,1.30804-.38477,1.15424-.3078,6.92529-2.53925,7.46393-2.15454,2.07758,2.92401-2.61621,4.53992-4.77075,5.38635-6.84833,2.61621-14.31219,3.61652-21.46832,4.77069.38477-1.15417-.61554-2.46228-1.15417-3.53955l.46167-.3847ZM120.27745,43.47657l.69257-.38477c1.92365,1.2312,1.30811,4.38599-1.00037,4.77075.69257-1.38507,1.53894-3.07788.3078-4.38599ZM116.89177,53.47968l1.15424-.30774c.61554,1.76978,1.07727,2.84705-.84644,3.92426.38477-1.30811.53864-2.46228-.3078-3.61652ZM117.58428,48.40119l.07697.07697c-2.53925,1.38501-9.15674,2.30841-12.15765,2.69312-7.07916.84644-26.85461,1.69287-32.31787-2.84705-1.23114-1.00031-1.84674-4.46295-.23083-4.69379.84644-.15387,5.30933,1.84674,6.77136,2.15454,2.23145.46167,5.23242.84644,7.46387.92334,10.54181.53864,21.23749-1.00031,31.47144-3.38568,1.76984,0,.69257,4.15515-1.07727,5.07855ZM80.11095,64.25232c.84644-.15387,2.15454.6156,3.15485.38477l-4.61682,2.53925c-2.30841.6925-4.30908,4.61682-5.61713,5.61713-.46173.3078-5.46332,2.46234-5.69415,2.30841,1.53894-3.15479,3.92432-5.92493,6.84833-7.84857,1.07727-.69257,4.92462-2.69318,6.00189-2.92401l-.07697-.07697ZM75.26329,71.56232h.07697c2.61621-3.07788,6.77136-4.92462,10.46478-6.38666.38477-.15387.53864-.53857.76953-.61554.15387,0,3.38568.92334,2.77008,1.53894-2.07758.3078-4.38599,1.30811-6.00189,2.53925-.53864.38477-.84644,1.23114-1.23114,1.38507-1.84674,1.00031-5.54022.92334-7.38696,2.53925-.15387-.53864.3078-.6925.53864-1.00031ZM85.80504,68.71528v.07697c3.30878-1.84674,6.69446-2.77014,10.31097-1.30811.07697.3847-.53864.46167-.76947.46167-3.69348.53864-7.46387.84644-11.00348,2.00061-.15387-.6925.92334-.92334,1.46198-1.23114ZM77.5717,58.09656c-2.46228-.69257-4.92462-2.15454-4.61682-5.07855.23083-2.46228,2.77008-.23083,3.69348.15393,7.31,3.15479,23.54584,2.53925,31.62531,1.69281,1.07727-.15387,6.46362-.84644,6.92529-1.07727,0,0-.38477-.76947.3078-.84644,1.61584,4.15515-.69257,5.23242-4.38605,5.84802-8.61804,1.46198-25.23871,1.69281-33.54901-.6925ZM99.19389,38.32111l.84644,3.46259c-.23083.69257-1.84674.46167-2.46234.46167l-1.15417-3.61652,2.77008-.30774ZM71.95458,34.1659h.15387c.38477,0,3.46265,1.84674,4.30902,2.15454,6.07886,2.30841,12.46552,2.53925,18.85211,2.30841,0,1.30811,0,2.84705.84644,3.92432-2.30841-.0769-4.61682.23083-6.92529.15393-.15387,0-.30774.3078-.6925.3078-.6156,0-1.76978-.76953-2.77008-.46173-.46173-.3078-.84644-4.69379-2.30841-3.77039l.30774,3.46259c-2.53925,0-2.07758-2.00061-2.53925-3.92426-1.69281-.07697-.92334,2.84705-1.15417,3.07788-2.38538-.23083-8.15643-2.23151-8.84894-4.77075-.2309-.6925-.15393-2.61621.76947-2.46234ZM77.03307,64.09845l-5.61713,3.23175c-1.38507,1.38507-2.77014,2.69318-3.84741,4.23212-.76947,1.07727-2.07758,4.23212-2.61615,4.77075-.69257.61554-3.23181,1.30811-4.15521,2.07758,2.61621-7.23309,7.46393-15.15863,16.2359-14.31219ZM59.18132,81.48853l.15387.07697c11.31128-9.92621,42.55188-13.69666,57.40271-14.31219,3.92432-.15393,8.0025.15387,11.92682,0l-.46167,1.07721-9.2337-.23083-11.38818.84644c-.07697.6156,0,.46167.3847.6156,1.07727.46167,2.77014.61554,4.00128,1.07727,7.6178,2.61621,14.85083,6.15576,23.2381,5.30933,2.15454-.23083,3.38568-1.38507,5.30939-2.00061,6.23273,4.00128,13.54272,8.15643,21.08356,8.69507,12.08069.84637,24.85394-.9234,37.0116.61554l4.92462,1.38507c-.53857.15387-1.00031.3078-1.53894.3078-4.30902-.15393-8.6181-1.00031-12.92712-1.15424h-4.77075l-.30774.53864c-.2309,0,0-.3847-.53864-.6156-.6156-.23083-3.77045-.23083-4.77075-.23083-16.62061-.3847-33.31818.15393-49.93878.15393-20.69885,0-41.32074-.3078-62.01953.15387-2.92401,0-6.00189-.3078-8.84894.23083-.15393-1.15417.53864-1.84674,1.30811-2.53925ZM45.40776,127.503v.07697c3.38568-.15387,6.77136.76947,10.23395.53864.46173,0,.9234.07697,1.2312-.46167-.3078-.84644-.84644-.84644-1.61591-.9234-1.53894-.23083-7.69476-.3078-8.46423-1.30811-.23083-.23083-.30774-.53864-.30774-.84644l.61554-5.38629-.61554-.6925c.61554,0,.61554-.3078.6925-.84644.46167-2.23145.6156-4.84766,1.07727-7.07916,1.69281-8.38727,4.15515-16.92841,8.07947-24.5462h78.1015c0-.0769.3078-1.00031.3078-1.00031l.15387.84644,69.7912.6156c1.38507,2.07758,2.30841,4.46295,3.15485,6.77136,2.61621,7.23303,4.84772,16.54364,5.84802,24.16144.46167,3.30872.61554,6.61749.61554,9.92621l-9.92615.53864-.3078.61554-.3078-.53864h-2.46228c-.38477.07697-.6156,1.30811.23083,1.46204,4.23212.46167,9.38757-.23083,13.69659-.53864,1.61591.3078,1.15424,5.46326.46173,6.00189-.6156.46167-5.92499.6925-7.15613.6925-21.31439.6925-43.47522,0-64.86658,0-25.70044,0-51.09302,0-76.56256-.3078-6.38666,0-14.31219.46173-20.46802-.53864-.3847,0-1.38501-.46167-1.61584-.76947-.46173-.76947-.46173-6.00189.3847-6.46356ZM43.09935,157.20466c0-1.07721.6925-2.15448,0-3.23175l2.92395,2.53925.69257,1.23114-.53864,8.07947v8.849l-2.69318-2.07758c-1.45911-1.68951-.38934-5.98413-.38507-8.14288-.00134-2.44116-.07593-4.88171.00037-7.24664ZM50.33238,180.28888c.76947.53864,2.38538,1.69281,3.15485,1.84674.53864.15387.76947.23083,1.15417-.3078-1.30811-.9234-2.30841-2.23145-3.53955-3.23181-.9234-.76947-3.61652-2.15448-3.77045-3.23175-.15387-.76947.3078-1.38507.3078-2.00067,0-3.30872-.15387-7.0791,0-10.08008.07697-1.76978,0-3.46265.3078-5.15546l6.84833,5.07849.46167-.6925c0-.76947-4.84766-3.84735-5.77106-4.61682-1.46198-1.38507-1.38507-1.46198-1.23114-3.46265.15387-2.77008.76947-5.77106.76947-8.54114,0-1.46198-.9234-1.38507-1.23114.23083-.53864,2.92401-.38477,6.15576-.9234,9.07977l-3.30872-3.84735,1.38507-15.46643c1.76978.84644,4.30902,1.15424,6.30963,1.38507,12.92712,1.38507,27.31628.46167,40.39734.53864,35.01105.23083,70.56067.23083,105.80255.6156,1.76978,0,3.84735-.38477,5.61719,0,.92334.15387,1.15417,1.00031,1.30804,1.76978.9234,7.92554.69257,18.00568.53864,26.08514,0,.46167-.61554,2.07758.38477,1.84674.23083,0,.53864-.76947.6925-.38477-1.07727,3.77045-.3847,8.07947-.53864,12.08075-.15387,3.30872-.46167,7.3869-.84644,10.61871-.46167,3.69348-2.15448,14.69696-5.07849,16.85144-2.30841,1.69287-5.92493,1.38507-8.54114,1.53894-2.53931.15393-5.15552.46173-7.69476.3078l.3078-42.39795h-13.08105c-.15387,0-.6156-.76947-1.07727-.9234-.76947-.30774-4.15515-.3847-5.07849-.15387-.84644.15387-1.00037.92334-2.00067,1.07727-2.53925.30774-6.84827-.07697-9.69537-.15393-15.6203-.15387-31.47144-.30774-47.01477-.46167-2.00067,0-6.46356.46167-8.07947,0-.3078,0-.23083-.53864-.46167-.6925-.38477-.23083-5.23242-.23083-6.00189-.15393-1.00037.15393-.9234.69257-1.2312.76947-3.38568,1.00037-8.3103-.15387-11.84985.15393l-.69257,42.24408c-10.46478-2.00067-20.69879-5.30939-29.00909-12.15771-1.92371-1.61584-3.61652-3.53955-5.61719-5.15546l-.15387-4.30902c2.77008,3.77039,6.77136,6.30963,10.69568,8.69501.3078-1.15417,1.00031-.6925.38477.3078l2.00061.3078-.38477-1.38507c-1.84674-1.15417-3.69342-2.23145-5.46326-3.53955-1.53894-1.15424-3.69348-2.84705-4.61682-4.07825-.76947-1.00031-2.53925-2.61621-2.69318-3.77039-.45563-2.80969.35785-6.59027.00958-9.57349,2.59943,2.11566,5.00293,4.6297,7.83911,6.49561ZM95.88518,167.6695c-1.38507-.53864-3.07788-.23083-4.46295,0,.15387-2.30841,2.84705-1.15417,4.46295-1.38501-.23083,1.07721-1.61591.15387-1.69287.3847-.23083,1.00031,1.92371-.23083,1.69287,1.00031ZM98.27055,170.13184h.0769l.3078-2.46234,63.0968.46173c2.07758,2.15448,5.61719,3.00092,8.6181,2.69312,1.69281-.23083.84644-1.69281.38477-2.84705h11.23431l-.3078,41.0899h-102.64777v-41.39764c1.00037.15387,2.00067-.15393,2.92401-.2309,1.00031,0,7.07916.15393,7.38696.3078s.53864.9234,1.00031,1.30811c1.00031.6925,6.92523,1.76978,7.9256,1.07727ZM164.44524,167.90033c-.15393-2.15454,3.07788-.84644,4.46295-.84644l-.07697.07697c0,.6156-.9234,0-1.30811.3078-.15387.07697-.15387.6156-.46167.6925-.23083,0-2.53931,0-2.61621-.23083ZM43.94573,205.37372v.15387c-.76947-.3078-.46167-1.30811-.30774-2.00061l.30774,1.84674ZM219.23174,224.3797l.0769.15387c-2.07758.9234-6.61743,1.38507-8.77197.76947-.53864-.15387-.6156,0-.53864-.6925.38477.23083.76947.3078,1.2312.3078,2.84705,0,5.23236-.15393,7.77167-1.539,2.84705-1.61584,4.15515-5.46326,2.92401-8.6181-.84644-2.00061-2.84705-.23083-4.38605.15393-2.23145.53864-4.53986.6925-6.77136,1.23114.3078,1.2312.3078,2.07758-.23083,3.23181-1.15417,2.38538-3.38568,2.38538-5.77106,2.61621-12.38849,1.38501-27.47015,0-40.08954,0-3.77039,0-7.61774.3847-11.38818.23083l.84644.53864h-1.53894l.30774-.53864-93.95264-.3078c-6.15576-.46167-12.31158,0-18.39038-.76947,1.30811,2.15454,5.23242,3.38568,7.6947,3.38568h5.46326c-.61554,1.30811-1.69281.53864-2.61621.53864-4.61682,0-8.46417.46167-11.92682-3.23181-3.15485-3.38568-2.61621-7.46387-.84644-11.38818.6156.53864.84644-.46167,1.2312-.84644.53864,0,.92334,1.07727,1.61584,1.46204,3.84741,2.23145,16.2359,1.53894,21.08356,1.61591,23.00726.23083,46.1684,0,69.02173,0,25.93127,0,52.93976,1.30811,78.87103.30774,3.00092-.15387,8.38727.07697,9.38757-3.38568,5.84796,2.92401,5.77106,11.92688-.3078,14.77393Z"/>
  <polygon points="204.84258 15.85248 204.85301 15.86762 204.85985 15.86249 204.84258 15.85248"/>
  <path d="M43.09935,164.43775c0,.00427-.00037.00928-.00037.01355,0,.02112.00037.04224.00037.06335v-.0769Z"/>
  <path d="M59.33519,178.13434h.23083c.9234-.15387,1.92371-.3078,2.84705-.3847-.46167.53857-1.07727.84637-1.53894,1.38501-1.15417,1.38507-2.07758,3.15485-1.84668,5.07855.84637.92334,3.53955-4.53992,4.46289-3.61652-.61554,6.0788-1.23114,12.69629.46167,18.69818l-1.84674,1.53894c2.38538.3078,5.30939,1.61591,7.54083.6925-.46167-1.23114-2.61621-1.38501-3.07788-2.00061-.6925-.9234-1.23114-4.61682-1.38501-5.92493-.53864-4.46295-.23083-9.07977-.3078-13.54272.53864-.38477,2.69312,1.61591,3.07788,2.07758.6156.84637,1.30811,4.23206,2.38538,2.92395,1.07727-1.30804-.3078-5.07849-1.38507-6.15576-.53864-.6156-1.46198-.84644-1.84674-1.69281l5.30939.84637c0-2.53925-3.69348-2.77008-5.61719-2.53925.38477-.84644,3.61658-2.46228,2.77014-3.38568-2.23151-.3847-3.46265,1.38507-4.92462,2.77014-1.2312-1.46204-2.61621-2.07758-4.53992-2.15454l-.46167.76947-1.07727-.23083,3.53955,1.84674.38477.61554c-2.00061-.0769-4.53986.23083-5.30933,2.38538.61554.84644,1.38501,0,2.15448,0Z"/>
  <path d="M187.60637,178.59601l.15387.07697c1.76984.15387,3.30878-.46167,4.92462,0-.3847.53864-1.23114,1.07727-1.61584,1.61591-1.07727,1.30811-2.30847,3.84735-2.00067,5.54022.15387.61554.76947,1.07721,1.15424.53857.46167-.53857.6925-2.07758,1.15417-2.77008.76947-1.30811,2.15454-2.38538,3.61652-3.00092.69257.53857-.0769,10.38788-.30774,11.92682-.2309,1.84674-.76947,6.00189-1.46204,7.54083-.30774.6925-.6925.23083-1.30811.3847-1.00031.3078-2.00061.38477-2.61621,1.30811l.38477.69257h4.23212c.30774,0,3.61652-1.00031,3.77039-1.2312,0-1.00031-2.00061-.53864-2.23145-.6925,1.61591-4.15515,1.46198-8.6181,1.23114-13.00409,0-.46167.23083-1.07727.15393-1.69281-.15393-1.539-.53864-3.77045-1.15424-5.23242,2.15454.61554,3.53955,2.92395,3.92432,5.07849.84644.3078,1.07727-.46167,1.07727-1.30811.07697-2.15454-1.00031-4.61682-3.07788-5.46326,0-.46167,1.00031-.3078,1.23114-.3078.92334.15393,2.00061,1.00037,2.69318.15393.30774-1.07727-3.30878-2.38538-4.23212-2.07758-.23083-1.38507,3.07788-1.69287,3.07788-2.07758-.3078-.76947-.6925-.84644-1.53894-.84644-1.76978,0-2.69318,1.00031-3.92432,2.07758-.76947-1.38507-2.53925-2.15454-4.07819-1.69287,0,1.61591,1.15417,1.46204,2.00061,2.53931-2.07758,0-4.30908,0-5.92493,1.53894-.15393.6156.30774.3847.6925.3847Z"/>
  <path d="M48.25481,141.35352h.07697c-.6156.15393-.46173,1.46198-.46173,1.92371h.76947c.38477-.23083,1.00031-2.38538-.3847-1.92371Z"/>
  <path d="M100.27117,194.75495l.07697-.23083c1.07727-3.46265,1.76978-13.38879,4.69379-15.23553,1.23114-.76947,4.92462-.84644,6.3866-.6156.69257.07697,1.07727.23083,1.23114,1.00031.76947,4.00128-.61554,12.23462,1.07727,15.2356.9234,1.53894,2.53931,1.46198,4.15515,2.07758h29.47083c1.2312-.15393,2.46234-1.46198,2.69318-2.69318.23083-2.00061.3078-11.92682,0-13.77356-.23083-1.07727-1.23114-.6156-1.15424-1.53894.38477-.3847,5.92499-.3847,6.77142-.23083,3.53955.6156,3.61652,5.61713,3.84735,8.46417.07697,1.15424.07697,7.23309.53864,7.6178l.84637.15393v-18.08264c0-.15387-.30774-1.92371-.3847-2.07758-.46167-1.46198-1.61591-2.38538-3.07788-2.53925-7.07916-.84644-16.69757.15387-24.1615.15387-7.61774,0-15.3125-.46167-22.9303-.53864-2.46228,0-7.0022-.6156-9.07977.46167-2.46228,1.30811-1.46198,6.30969-1.53894,8.84894,0,.76947-.3078,1.38507-.3078,2.23151,0,1.53894-.15387,11.15735.3078,11.69598.76947.07697.46167,0,.53864-.38477ZM115.19896,177.5188v.0769c.76947-.23083,4.61682.15393,5.77106.15393,8.0025-.07697,16.23584-.53864,24.39227-.3078,2.00061.6925,1.53894,2.46228,1.61591,4.15515h.84644l-.15393.61554-.6925-.30774v12.00378c-.3847.15387-.76947.46167-1.07727.53864-3.69348.84637-12.08069-.15393-16.23584-.2309-3.38568,0-6.77136.07697-10.08014,0-3.53955-.0769-5.15546,1.07727-5.46326-3.23175-.23083-2.77014,0-5.61719,0-8.38727,0-1.46198-1.07727-4.46295,1.07727-5.07849Z"/>
  <path d="M129.12639,201.68024c-3.69348,1.07721-.3078,8.77197,3.30878,5.30933,2.46228-2.30841-.38477-6.15576-3.30878-5.30933ZM129.12639,203.91169c.3078-.61554,1.2312-.6925,1.76984-.53864,2.23145,3.69348-3.00098,2.92401-1.76984.53864Z"/>
  <path d="M72.80095,130.11921h.15393c5.15546.38477,11.00348-.15387,16.31281,0,4.30908.07697,9.00287.46173,13.15802.53864,29.08606.53864,58.32605.23083,87.56604.3078,3.00092-.6156,5.77106-2.53925,6.84827-5.46326,1.92371-5.23242-1.07721-21.54523-2.69312-27.39325-1.53894-5.61713-2.53931-8.84894-9.00287-9.31061-4.84766-.3078-9.77228.15387-14.62.15387-24.70007-.3078-49.47711-.6156-74.10022-.53864-5.92499,0-14.23529-.53864-19.92938.15393-6.15576.6925-7.23303,7.23303-8.23334,12.23462-.9234,4.53986-3.46265,18.77509-2.77014,22.54553.69257,3.53961,3.69348,6.46356,7.31,6.77136ZM69.41527,103.34156h-.15387c.53864-3.00092,1.69281-10.15704,4.00128-12.00378,3.23175-2.69318,9.15668-.6925,13.00409-1.61591l26.54681.15393c21.46826-.3078,43.09045.0769,64.55878.3847,3.00098,0,10.61877-1.00031,12.77325,1.2312,2.61621,2.92395,4.69379,15.15857,5.30939,19.39069,1.23114,8.6181,3.23175,17.92871-8.2334,18.62128-13.23492.76947-28.08575,0-41.55151,0-18.31348,0-36.62695-.46173-54.94037-.84644-5.30939-.07697-11.46515.46167-16.5437,0-2.46228-.23083-4.69379-1.15424-6.00189-3.30872-.84644-1.46204-1.23114-3.30878-1.15417-5.00159.0769-4.77075,1.46198-12.23462,2.38531-17.00537Z"/>
  <path d="M196.14751,91.4917l-.07697-.07697c4.69379,11.08038,6.61749,23.2381,6.38666,35.24188l10.31091-.6156c-.84644-8.07947-2.00061-16.38977-4.15515-24.2384-.76947-2.69318-2.61621-9.15674-3.84735-11.31128-.23083-.3847-.6925-1.07721-1.00031-1.23114-.46173-.3078-.76947,0-.9234,0,0,0,0-.3847-.0769-.3847-.3078-.15393-.76947.23083-1.15424.15387-1.92371-.15387-4.30908-.53864-6.23273-.23083-.3078,0-.53864-.15393-.38477.46167.07697.53864.9234,1.53894,1.15424,2.23151Z"/>
  <path d="M57.79625,89.33716c-2.15454,3.84735-5.15546,14.92773-5.61713,19.31378,0,.6925-.23083,1.61591.3847,2.07758l6.30969-22.16083c-.53864-.07697-.84644.3078-1.07727.76947Z"/>
  <path d="M40.32921,214.4535c-.61554,0-1.15417.53864-1.15417,1.15417,0,.6156.53864,1.15424,1.15417,1.15424.6156,0,1.15424-.53864,1.15424-1.15424,0-.61554-.53864-1.15417-1.15424-1.15417Z"/>
  <path d="M207.92046,218.37781c.92334,0,1.07727-1.15424.6925-1.53894-1.00031-1.15424-2.84705,1.69281-.6925,1.53894Z"/>
  <path d="M170.9088,40.16779v.07697c1.92371.9234,8.0025,1.84674,10.08008,1.61591.3078,0,1.07727-.15387,1.00037-.53864-3.53961-.53864-7.38696-1.76978-11.00348-2.07758-1.53894-.15387-1.2312.3847-.07697.92334Z"/>
  <path d="M167.67699,39.16749v-.84637c-.23083-.2309-4.07819-.6156-3.07788.30774l3.07788.53864Z"/>
  <path d="M85.19853,48.16626c.01068.85339,1.3963,1.00665,2.06854,1.08136,3.30872.30774,12.00378,0,15.15863-.84644.3078-.07697.53864-.07697.6925-.38477l-.3078-.6925-17.61188.84235Z"/>
  <path d="M85.11253,48.17035l.086-.00409c-.00031-.0257-.01129-.0459-.00903-.07288l-.07697.07697Z"/>
  <path d="M105.11882,47.01612l.46173,1.15424,3.15479-.84644c-.76947-1.07727-2.53925,0-3.61652-.3078Z"/>
  <path d="M93.4998,57.09626l-8.54114-.3078c-.07697.46167.15387.53864.46167.84637,2.00061,2.00067,6.54053,1.539,9.07977,1.15424,0-.6925-.23083-1.53894-1.00031-1.69281Z"/>
  <path d="M105.27275,57.09626h-9.15674v1.69281h7.15613c.46167,0,2.77008-.84644,2.69312-1.53894-.15387-.6925-.6925-.15387-.6925-.15387Z"/>
  <path d="M126.27934,180.28888c3.61652,0,8.38727.3847,11.84991,0,1.76978-.23083.84637-1.30811-.53864-1.38507-3.77045-.15387-7.69476,0-11.54211.15387-1.23114,0-2.53925-.53857-3.77045.15393-.30774,2.07758,2.53931,1.07727,4.00128,1.07727Z"/>
  <path d="M120.81609,179.51941l-1.76978-.3078c-1.46204,2.00061,2.77008,1.69281,1.76978.3078Z"/>
  <path d="M143.28471,179.90412c-.6156-.92334-1.53894-.6925-2.53925-.6925-.53864,1.53894,2.53925,1.30811,2.53925.6925Z"/>
  <path d="M74.18602,127.42609l-.07697-.15393c9.92621,1.15424,21.62219-.61554,31.70233.6156,4.30902-.3078,8.69501.3078,12.92712.15387,1.30811,0,2.46234-1.00031.53864-1.23114-1.92365-.23083-5.23242-.23083-7.31-.3078-11.77295-.3847-24.93091.6156-36.47302-.30774-4.46295-.3078-6.07886-2.07758-5.84796-6.46362.30774-5.30933,2.46228-20.31409,4.53986-24.85394.53864-1.2312,1.61591-2.38538,3.00098-2.61621,30.77893-.15393,61.7887,0,92.33673.23083,5.15552,0,11.08044-.53864,16.31287,0,1.84674.15387,2.84705,1.30811,3.53955,2.92401,2.07758,5.15546,4.77075,20.92963,4.23212,26.39288-.3078,3.00098-2.23145,4.69379-5.15546,4.92462-10.77264.9234-23.8537-.23083-34.78021-.30774-3.30872,0-6.6944,0-10.00311.30774l.46167,1.15424h24.62317c6.46356,0,14.3891.6925,20.77576,0,5.30933-.6156,5.38629-5.84802,5.23242-10.00317-.23083-4.46295-1.15424-9.00281-1.69287-13.38879l-.84644-.15393c-.15387-.46167.38477-.15387.46173-.30774.3078-.46173-.6925-4.15515-.9234-5.00159-.84637-3.07788-1.69281-7.07916-5.38629-7.54083-3.69348-.53864-9.00281-.15393-12.85022-.23083-31.85614-.46173-63.63538-.15393-95.64551-.3078-3.15485.3847-4.46295,2.23145-5.38629,5.00159-1.76978,5.54016-3.15485,14.00439-3.77045,19.85236-.53864,5.15552-1.15417,10.77264,5.46326,11.61908Z"/>
</svg>