<?xml version="1.0" encoding="UTF-8"?>
<svg id="_レイヤー_1" data-name="レイヤー_1" xmlns="http://www.w3.org/2000/svg" version="1.1" viewBox="0 0 260 240">
  <!-- Generator: Adobe Illustrator 30.0.0, SVG Export Plug-In . SVG Version: 2.1.1 Build 123)  -->
  <path d="M128.2647,0c.79057.33098,1.42066.84351,1.57199,1.73406.29595,1.74125.11253,5.56276.03209,7.48526-.10988,2.62443-.38675,6.37103-.73124,8.95604-.21003,1.57666-.66686,2.9092-2.46574,1.9682-.24436-.28174-.61649-3.41427-.63436-4.09313-.07373-2.82486.25513-6.17081.3311-9.01561C126.42967,4.74257,125.66064,1.53363,127.62832,0h.63639ZM143.25878,156.47214c11.65613,22.14617,23.04596,44.46553,35.77093,66.03149,1.53907,1.84199,3.37878.65001,2.43952-1.45799-12.10442-19.86397-21.8526-41.02374-33.42117-61.1565-.74974-1.30461-3.3473-6.16579-4.16955-6.8328-.32967-.26739-.64512-.58359-1.12612-.4456-1.17813.33821.26488,3.1668.50639,3.8614ZM133.69667,154.90334c4.21403,21.86077,10.48775,43.21573,16.12182,64.7303.35242,2.84199,3.22767,4.55,3.1972.632-6.48416-21.72157-11.9277-43.72034-17.75963-65.61929-.09729-.451-.57932-1.20561-1.09993-1.09941-.41193.0838-.60653.9496-.45946,1.3564ZM96.72488,174.26171c-7.09963,14.04458-14.59555,27.94595-21.23672,42.21194-.51269,1.102-2.46898,4.796-2.05095,5.64399.52446,1.06401,2.25976,1.296,2.9248.20401l24.70772-52.53852c.37375-.7056.21165-2.2098-.93499-1.8538-1.16025.3602-2.80272,5.1314-3.40986,6.33239ZM124.71651,180.5187c-.17713.63681-.25208,2.9602-.28478,3.7552-.25716,6.2306.45114,12.54717-.3248,18.73576l.35547,16.24398c.02621,4.042-.624,10.25598.00223,14.00999.40788,2.446,3.24513,2.45399,3.36802-.34001.14747-3.356-.34917-7.42598-.34409-10.87597.01463-9.62399-.01402-19.20998-.29717-28.76536-.10725-3.61498.1359-8.04418-.19987-11.46817-.06602-.67241-.38188-3.2144-1.42574-2.9888-.45115.0974-.72962,1.26399-.84927,1.69339ZM207.17327,186.47449c-5.71836-5.12278-11.33253-10.32077-17.173-15.30097-3.25303-2.7738-7.59707-6.90319-10.98174-9.20058-1.29493-.87921-2.72655-1.4246-2.65709.71379,6.78052,6.72899,13.77838,13.37179,20.94849,19.73057,4.28574,3.80079,8.66085,7.91359,13.21896,11.37758,2.78688,2.1174,4.74907.03041,2.90063-2.06599-1.59858-1.8108-4.4139-3.6042-6.25625-5.2544ZM155.30471,16.37741c1.47488-4.57919,3.33408-9.03068,4.46549-13.73708-1.93639-3.18562-3.98997,2.53452-4.60444,4.23837-2.94876,8.17687-5.06472,17.01325-7.57535,25.33904-1.18502,3.92899-2.83318,7.81319-3.89146,11.78758-.40606,1.5254-1.97357,6.21559,1.03269,4.90799,3.56972-10.82778,7.07646-21.68076,10.57306-32.53591ZM174.96313,59.3759c-1.1381,2.5428,1.17184,1.8492,2.6256.7032,3.21629-2.5354,6.43745-5.96479,9.53875-8.74579,5.99178-5.37319,12.05405-10.67478,17.65502-16.39017.75155-.7674,2.94937-2.00959,3.04891-2.96939-.49766-2.7512-2.99609-.7882-4.30423.1776-4.30767,3.17759-7.60073,7.62059-11.44813,11.24298-3.43117,3.23039-7.07097,6.27179-10.48956,9.52938-1.33597,1.273-6.04216,5.14659-6.62636,6.45219ZM84.99278,168.66013l-15.5998,22.51576c.85556,4.23879,3.80351-.36859,4.97839-2.01219,6.71754-9.39839,12.58176-19.70497,19.27798-29.15436.42839-.6608.34308-1.3954-.54072-1.46919-.55575.11999-6.65803,7.81278-7.0139,8.76218-.20862.5562-.02702.7388.16656,1.22081l-1.26851.13699ZM99.94603,6.39629c-.23055,1.1895.4487,5.66693.71093,7.10497,1.44828,7.94131,3.97943,19.16289,6.37914,26.82428.55738,1.7794,1.64064,4.61019,2.43486,1.0782-2.42775-10.22459-3.6012-20.99957-6.11934-31.16941-.38796-1.56672-.89517-5.23057-2.88803-4.57997-.41377.13502-.44586.37204-.51756.74194ZM71.3635,16.01653c3.40722,6.97523,8.44167,14.41702,12.40789,21.22361.78162,1.3418,2.35889,6.06499,4.20327,5.49199,1.05097-.3264.10034-1.9162-.16819-2.5838-1.74829-4.34899-5.12931-10.27738-7.42462-14.56378-1.92644-3.59799-4.61642-9.20155-6.78682-12.38114-.8385-1.22868-1.31726-1.75768-2.87727-.98476-.26081,1.39594.0386,2.55488.64574,3.79787ZM48.90173,30.24415c.95266,1.397,2.24128,2.1982,3.20105,3.25859.56327.6224,1.86591,2.8384,2.15353,3.03779.55616.3856,1.23622.1812,1.44747.3032.10359.0598.20698,1.0506.97642,2.002,3.28291,4.0598,7.2347,7.75919,11.12922,11.24318l1.28863.02c.79198-.5478-.10766-2.0766-.51838-2.6502l-18.04867-20.52297c-3.21364-.8744-3.10538,1.1438-1.62927,3.30839ZM105.89109,193.23888c-1.23094,6.85679-3.48359,13.69077-4.91583,20.45677-.54072,2.556-1.57645,7.182-1.67659,9.61398-.03555.864.04732,1.794.84662,2.306.82062.23401,1.46535-.79399,1.62297-1.468,1.25511-9.58798,5.17928-19.88196,6.36635-29.33015.08633-.687.19886-1.36439.03128-2.05439l-1.06194-.71879-1.21286,1.19459ZM114.3543,158.47115c-2.23519,7.32958-4.44194,16.27277-5.98061,23.78236-.23684,1.15559-1.20047,4.57499.38249,4.96419.793.19499,1.2937-.6116,1.53441-1.21139,1.45539-7.33559,3.44886-14.55518,5.09132-21.84597.42616-1.89219,2.12306-7.81659,2.03592-9.23338-.02721-.4436-.55453-1.13341-1.04792-1.05079-.96667.16179-1.73042,3.65939-2.01561,4.59499ZM178.71588,185.3861c.37822.0564.76497.0414,1.10236-.15919l.48729-.76041-.20475-.74919-21.93242-26.57596-1.26405-.16161c-.08734.8526.42493,1.47821.82245,2.155,3.28169,5.587,9.82921,12.92358,14.01237,18.24118,1.13486,1.44279,5.48559,7.78739,6.97673,8.01018ZM172.03977,33.10314c-3.46877,6.56899-9.39109,13.26578-12.53261,19.85277-.28073.5884-1.22282,2.2944-.18648,2.58139l1.86428-.9358c2.64103-4.26439,5.28979-8.53138,7.99541-12.75578.87913-1.3724,5.1224-7.06739,5.2258-8.01338.09769-.8958-.31018-1.7668-1.36947-1.652l-.99694.9228ZM19.90075,118.58801c-1.33786-.1022-4.82286.21619-6.34441.3192-3.42873.23199-9.20861.55659-12.3943,1.26359-.95411.2118-1.2281.76-1.14925,1.6878.34954,2.1802,6.01799.616,7.49942.48299,4.54907-.4078,9.37993-.4936,13.7629-1.6382l-.00284-1.723c-.40117-.294-.88542-.3552-1.37152-.39239ZM25.80033,145.58477c-4.03305,1.0242-12.1176,4.53219-16.12213,6.34458-2.99983,1.3578-3.33899,3.6094.47631,2.65,3.61615-.90941,12.89897-4.73879,16.19223-6.58759.80112-.4498,1.91709-1.96299,1.00892-2.5242-.3445-.213-1.13648.0108-1.55533.1172ZM203.66531,64.76769c.54437.2622,1.12328.1926,1.69.0768,1.33047-.2714,6.95704-3.29319,8.51297-4.13759,2.82547-1.5344,5.44375-3.44919,8.2611-5.00239,1.64328-4.072-4.14172-.5138-5.73015.3078-2.20595,1.1416-11.44813,6.10579-12.61611,7.43559-.28234.3198-.65872.9854-.11781,1.3198ZM217.7764,164.21613c3.87563,2.34419,7.70658,4.76179,11.66142,6.97939,1.16999.5032,2.57156-.18021,2.19578-1.50979-.19094-.6768-2.32173-1.8964-3.03672-2.349-2.73812-1.729-6.8961-3.96301-9.84141-5.3276-1.05421-.4882-3.32516-1.58059-4.36922-1.2426-2.70969.879,2.85796,3.1278,3.39015,3.44959ZM126.07969,26.10096c.20008,1.87-.3055,3.79799-.37883,5.56559-.03697.8926.24152,1.711.21612,2.454-.05139,1.5002-.63415,8.96058-.16575,9.66898.21227.3212.41702.648.80661.7912.65955-.047,1.2996-.3834,1.38003-1.0606.18647-4.75019.7926-9.57478.97541-14.32658.04245-1.1026.2667-3.85379-1.37922-3.84979-.37984.001-1.31137.3502-1.45437.7572ZM72.71123,169.74672c1.46535-1.9012,1.5208-3.48419-.93519-1.5412-2.41861,1.9136-10.71769,10.14378-12.38006,12.51118-.54377.7744-1.32884,2.055.04794,2.4324.83606.2292,2.20472-1.01579,2.84192-1.62539,2.97091-2.8408,7.89405-8.49259,10.42539-11.77699ZM124.77766,163.07673c-.02478.83-.3445,1.587-.35202,2.47219-.01828,2.1566-.03819,6.12819.3447,8.12259.22344,1.1636,1.68797,1.12199,1.90267.0024.39792-2.07539-.03107-6.37058-.01341-8.75018.026-3.47799.429-7.75998.02011-11.22838-.08064-.6844-.2279-1.2532-.80153-1.7044-1.49419.0134-1.06112,9.76659-1.10053,11.08578ZM36.80036,180.99031c-.62745-.6192-1.24231-.2052-1.87769.06979-1.13039.489-8.07787,5.809-8.97426,6.80019-.65284.722-1.05808,1.5616-.63639,2.52501.35425.4632.68433.27299,1.13405.1606,1.34834-.3374,8.70959-5.95099,9.74634-7.15039.5913-.68399,1.0333-1.51759.60795-2.40519ZM182.98292,16.37295c-.82713,1.78394-7.99499,10.2378-6.95825,11.6814.20535.2858,1.42593.3956,1.8722.1976,1.32072-.5864,5.63813-8.39917,7.08256-9.92263l-.1168-2.37068-1.87972.4143ZM94.20572,26.69436c-.52609-1.352-1.33412-6.80681-3.60994-6.07339-.37883.132-.47573.4092-.53138.767-.12188.7838,3.73506,10.46698,4.41553,11.90338.66544,1.405,1.01218,3.0228,2.91891,2.59919.75949-.7324-2.67515-7.86499-3.19312-9.19618ZM139.68927,20.74377c-1.20556.309-1.58519,2.986-1.79786,4.14599-.24273,1.324-.24476,2.8948-.44424,4.24579-.17752,1.2028-1.87586,6.25819.20923,6.11419.43854-.3398.62074-.8572.84926-1.3314.76355-1.5834,2.43608-9.47698,2.4966-11.30858.01889-.5698-.07454-1.1502-.40522-1.629l-.90776-.237ZM190.94075,201.45766c1.06782.94601,2.71618.634,2.06903-1.088-.36583-.9722-4.59206-5.99119-5.56807-7.02558-1.03552-1.09761-2.14683-2.6856-3.80839-2.34721-1.10377,1.0012,6.799,9.07079,7.30743,10.46078ZM247.42859,116.09741c-3.79437-.7012-8.23264-.2354-12.07172-.9254-3.88374,1.611.83079,2.20359,2.56955,2.44359,3.41045.4708,6.86359.3458,10.3025.352-.00203-.89799.26-1.67419-.80032-1.87019ZM200.38688,53.40851c-1.18625.5796-9.29622,6.12779-10.08577,6.96699-.47429.5044-.78386.785-.61628,1.5588.17286.6606,1.26851.2396,1.64796.078,1.56832-.6686,8.82882-5.68419,10.1211-6.92679.34511-.3318,1.34367-1.1666.95023-1.7154-.29311-.4086-1.51106-.2092-2.01724.0384ZM117.13061,24.18356c-.18728-1.3686.0457-6.25625-2.23843-3.09959.6112,3.58859.24964,7.90299,1.4499,11.36818.28417.8202.3902,1.49099,1.42086,1.2552.53685-3.2024-.19643-6.33919-.63233-9.52379ZM13.94668,101.03524c.57501-.0104.96584-.4674,1.04861-1.0136.01052-1.35299-6.52387-2.7928-7.83878-2.92939-1.15507-.12-4.38334-.1552-2.5844,1.7562.4643.4934,8.34161,2.20559,9.37456,2.18679ZM112.99519,210.50365c-.07271,1.104-.22303,5.152,1.41619,2.94999.92077-1.23599,1.85657-10.17998,1.39324-11.64198l-.25025-.37799-.96769-.138c-.36583,2.96398-1.3979,6.26998-1.59149,9.20798ZM206.12109,170.35173l.73531-.4396c.06907-.4602-.15437-.80679-.35952-1.188-.3697-.6866-6.54165-6.00258-7.28671-6.27118-.4684-.16881-.87364-.2856-1.37373-.1344l-.48303.6974c.06906.73099,1.99041,2.30279,2.64043,2.88159.95164.8474,5.18273,4.3742,6.12725,4.4542ZM21.36713,168.69893c-.47653.4368-.88969.86259-.97378,1.53579.29311,1.4172,4.1663-.80679,4.81914-1.1972,1.07067-.64,7.83738-5.75878,3.05277-4.81779-.96058.189-6.01819,3.6728-6.89812,4.47919ZM35.80708,51.82712c.4745.6504,5.66617,4.31079,6.41388,4.35079.98069.0524,1.54274-.5714,1.16838-1.469-.39711-.9522-5.59244-4.55879-6.682-4.71799-.47633-.0696-.89822.1438-1.32783.284-.20881.6816.05058,1.035.42758,1.5522ZM177.58955,47.59652c.97013-.794,5.74376-5.90699,6.1106-6.80479.16373-.4006.47471-.6686-.06052-1.0082-1.0396-.66-2.06254.7382-2.717,1.4072-1.19479,1.2212-4.6213,4.74819-5.39033,5.94839-.39447.6156-.58927,1.1118-.49035,1.8566.27605.2996,2.21365-1.1258,2.5476-1.3992ZM152.81906,47.98412c-.12858,1.1468.66949,1.3328,1.49683.5042.75521-.756,3.89045-6.83579,3.84292-7.77499-.02275-.4484-.59759-1.157-1.06195-1.062-.77147.1576-4.16588,7.33419-4.2778,8.33278ZM134.83986,199.99467c.65671,1.863,1.63841.74901,1.72636-.71979.13467-2.25061-.90797-5.13959-.67233-7.49199-.14118-.8072-.76903-1.2186-1.57971-1.0982-.84723.5564.08165,8.05039.52568,9.30998ZM71.04581,36.28254c.16129.9086,3.72349,6.02279,4.53984,6.48859.70281.4012,1.90978.6046,1.50597-.5322-.22771-.6414-4.18925-7.01459-4.56504-7.22719-.93437-.5288-1.66907.2092-1.48078,1.2708ZM61.25356,203.48366c.81859,3.042,4.68183-3.01199,5.0377-4.15699.28478-.91659.32134-1.4518-.82692-1.75259-1.11962.7448-4.48886,4.87759-4.21078,5.90958ZM102.46661,162.44554c0,.493.07658.7946.50578,1.08459.86612.1806,4.1667-6.49498,3.95038-7.29319-.11964-.44139-.58805-.5838-1.04366-.465-.728.1898-3.4127,5.8986-3.4125,6.67359ZM14.99284,135.91437c1.01471,1.4442,8.15468-.397,6.99179-2.0276-.35648-.5-6.89676.20061-6.99179,2.0276ZM53.97214,51.48651c.77411.5864,2.22787,1.8686,3.01499.782.21064-.7458-3.06434-3.81259-3.80128-4.06799-.42291-.1464-.84622-.1738-1.28781-.138-.34145,1.4112,1.01664,2.6232,2.07411,3.42399ZM162.03403,28.28295c-.46048.592-2.38327,4.69099-1.94757,5.10839,1.90146.7846,4.21058-4.92019,3.17525-5.61459-.67986-.0992-.83403.0002-1.22769.5062ZM260,127.01819v1.2482c-6.9814,9.09659-16.12407,15.92617-26.83281,20.34036-18.10454,7.46259-37.99962,8.6388-57.23128,5.1522-18.69278-3.38879-33.04276-10.69679-52.91853-9.57318-20.44981,1.15599-52.49623,13.73937-69.12324,25.51876-1.65852,1.175-6.38483,4.51379-6.47197,6.47059,4.29163,20.85417,9.83633,41.48454,13.70241,62.3985-.21084,1.23399-2.18075,1.59199-3.26909,1.36-2.96258-.632-3.22339-7.564-4.21322-9.924L13.96338,57.02271c-.39581-.9508-2.07476-.6502-3.02545-1.0924-4.73541-2.2028-5.0502-9.54499-.88457-12.55018,6.92606-4.99679,15.3141,1.191,11.62901,9.22079-.50903,1.1094-1.82319,1.95459-1.94915,3.0956-.21905,1.98359,1.4519,4.54179,1.5104,6.64759,3.88497,2.015,6.51239,4.7664,9.1715,8.13299,27.13628-15.33198,59.71611-24.65116,91.22628-19.50937,23.94986,3.9084,43.88821,17.74037,67.39586,22.53177,20.64461,4.20739,43.88414,1.6334,61.57024-10.15138,1.69812-1.1314,5.32797-4.74519,6.6625-5.32399.81047-.3508,1.59657-.6232,1.78751.5024.17062.9974-.79219,5.42319-1.06032,6.76399-4.16813,20.94196-18.21625,40.49093-38.40281,49.08812,8.55562,7.31699,20.83858,14.28417,32.60563,13.57198,2.57765-.1562,5.30359-1.40539,7.79999-.93239ZM25.64291,70.22069c-.4812-.4514-2.86955-2.528-3.33917-2.1834l24.4983,103.92084c.9169-5.0796,2.44014-10.04939,3.14193-15.17838,3.62721-26.50815-3.78605-67.32029-24.30106-86.55906ZM98.93101,128.66959l-3.93696-28.16055c-.23806-.364-.6634-.6872-1.08083-.8156-1.74423-.5364-6.23675,1.195-8.2093,1.65439-1.3587.3164-4.7647.2352-5.63022,1.34179-.74912.9578-.24923,4.5472.32907,5.5766,1.70645,3.03679,6.5-.5578,7.29889.6418.16148.2428.72312,3.34959.78121,3.91439.31078,3.02939.16555,7.29379-1.2094,10.03838-2.24027,4.4716-8.58772,5.65919-11.44914,1.1308-2.80069-4.43199-5.26642-22.76776-5.78804-28.65275-.33882-3.82419-.49989-10.31338,2.7111-12.93997,4.24268-3.4704,9.13027.0452,10.80239,4.36779.38107.9846.44911,3.5518,1.60367,3.75179.86938.1504,6.95013-1.4598,7.31494-2.1982,1.04609-2.11619-2.60224-8.78878-4.134-10.61538-5.99422-7.14699-18.76489-6.53419-23.96754,1.1556-5.05497,7.47139-3.80636,17.00857-2.51854,25.44555.87283,5.71799,3.59348,21.16716,6.92027,25.35737,4.70417,5.92519,13.13325,7.42939,19.37507,2.789.83972-.62421,3.67819-4.0892,4.46977-3.55239.21694,3.05599,5.98792,2.08279,6.31759-.23041ZM133.02453,103.15663c-.37294-12.28838.16291-32.24635-17.6477-31.82375-15.52241.3682-13.81433,17.61437-12.8834,28.37495.46516,5.37739,1.62398,16.37257,4.18844,20.85877,4.07448,7.12758,14.08245,9.30098,20.92553,4.71459,7.16787-4.8044,5.63834-14.83578,5.41713-22.12457ZM170.11252,121.0842c-3.38265-13.92237-8.48677-27.94075-11.55518-42.03333-.44485-2.438-7.99216-3.3236-9.70186-2.837-1.18706.33781-1.47285,2.2894-1.7229,3.3038-2.30364,9.34859-3.1259,19.89437-4.96723,29.45735-.79605,4.134-2.62681,9.32259-3.04687,13.23758-.13853,1.2912-.43488,2.8544,1.14806,3.1772,1.28273.2616,5.91764.4734,6.77422-.3982,1.35587-1.3798.546-8.49178,2.55492-9.37119l10.48958.6302c1.58031.7406,1.77307,8.18479,3.18784,9.35658.82468.6832,6.0968,1.064,6.99542.6322,1.27705-.6136.12675-3.9914-.15599-5.1552ZM200.61803,119.87721c-1.5535-.9058-2.37941-.32381-3.76798-.3356-1.6313-.0136-9.54158.2396-10.22653-.2952l-.37923-.56419-2.66702-36.86434c-2.24617-1.0878-5.06126-1.3534-7.45408-.7062l-.43753.8192.94229,10.91738,1.7351,32.62735c.59718,1.8076,6.66169,1.799,8.59483,1.8694,2.42511.0882,12.34472.3324,13.93518-.4058,2.04628-.95,1.06498-6.28059-.27503-7.06198ZM158.04221,108.00043l-.39223.2462c-1.30872.2306-6.63366-.1862-7.06002-1.4078-.42067-1.20559.71115-7.48999.99105-9.22678.35019-2.17199.84765-5.62699,1.45296-7.62519.12574-.4154.12757-.9486.68292-1.0422l4.32533,19.05577ZM43.30158,117.82241c-.28945-.9536-5.11814-.4682-5.34706.6598.00427.3206.11862.7526.34166.9774.51106.5154,5.51565.0436,5.0054-1.6372ZM110.75045,90.36125c-.0197,6.71919.43123,15.75518,1.64755,22.41457.82144,4.4978,3.06434,8.09638,8.36225,7.34819,3.4773-.491,4.35805-4.38159,4.63552-7.31079.41661-4.39939-.2732-11.89878-.63435-16.53218-.44363-5.69179-.66158-19.06496-9.62955-17.25197-4.71738.9538-4.37105,7.85359-4.38141,11.33218Z"/>
</svg>