<?xml version="1.0" encoding="UTF-8"?>
<svg id="_レイヤー_1" data-name="レイヤー_1" xmlns="http://www.w3.org/2000/svg" version="1.1" viewBox="0 0 24 24">
  <!-- Generator: Adobe Illustrator 30.0.0, SVG Export Plug-In . SVG Version: 2.1.1 Build 123)  -->
  <defs>
    <style>
      .st0 {
        fill: var(--colors-semantic-background-default);
      }
    </style>
  </defs>
  <path class="st0" d="M19.84635,5.59467c0-.79762-.6465-1.44168-1.4412-1.44168s-1.44165.64405-1.44165,1.44168c0,.7947.64695,1.43876,1.44165,1.43876s1.4412-.64405,1.4412-1.43876ZM21.7665,16.84845c-.05325,1.17015-.249,1.80585-.4116,2.2281-.2181.5598-.4785.96015-.90075,1.38-.41745.41985-.8178.67965-1.3776.8955-.42225.16485-1.06035.3612-2.23035.41685-1.2651.0558-1.63995.06765-4.84768.06765-3.20481,0-3.5826-.01185-4.84758-.06765-1.17006-.05565-1.80521-.252-2.22749-.41685-.56279-.21585-.9601-.47565-1.37999-.8955-.42285-.41985-.68319-.8202-.89847-1.38-.16251-.42225-.36115-1.05795-.4116-2.2281-.06165-1.26495-.07294-1.64565-.07294-4.84698,0-3.20777.01129-3.58557.07294-4.85054.05045-1.17006.24909-1.80521.4116-2.23104.21528-.55923.47562-.95718.89847-1.37706.41988-.41925.8172-.67962,1.37999-.89784.42228-.16545,1.05743-.3588,2.22749-.41453,1.26498-.05577,1.64277-.07002,4.84758-.07002,3.20773,0,3.58258.01425,4.84768.07002,1.17.05573,1.8081.24908,2.23035.41453.5598.21822.96015.47859,1.3776.89784.42225.41988.68265.81783.90075,1.37706.1626.42583.35835,1.06098.4116,2.23104.05865,1.26496.0729,1.64277.0729,4.85054,0,3.20133-.01425,3.58203-.0729,4.84698ZM23.9271,7.05251c-.05865-1.27863-.2604-2.15219-.55995-2.91303-.3048-.78936-.7134-1.45832-1.3824-2.12725-.666-.66599-1.33485-1.07461-2.12415-1.38298-.76395-.29653-1.6344-.50056-2.9136-.55629-1.2792-.06169-1.68795-.07295-4.94849-.07295-3.25761,0-3.66917.01125-4.94837.07295-1.27627.05573-2.14628.25976-2.91366.55629-.78638.30837-1.45533.71699-2.1213,1.38298-.66896.66894-1.07759,1.33789-1.38538,2.12725-.29653.76085-.49816,1.6344-.55985,2.91303-.05573,1.2792-.06996,1.6884-.06996,4.94897,0,3.25758.01423,3.66633.06996,4.94553.06169,1.2762.26332,2.1492.55985,2.9136.30779.7863.71641,1.45815,1.38538,2.12415.66597.666,1.33492,1.0776,2.1213,1.3854.76739.29655,1.63739.4983,2.91366.55695,1.2792.05865,1.69076.0729,4.94837.0729,3.26053,0,3.66928-.01425,4.94849-.0729,1.2792-.05865,2.14965-.2604,2.9136-.55695.7893-.3078,1.45815-.7194,2.12415-1.3854.669-.666,1.0776-1.33785,1.3824-2.12415.29955-.7644.5013-1.6374.55995-2.9136.05865-1.2792.0729-1.68795.0729-4.94553,0-3.26057-.01425-3.66977-.0729-4.94897ZM11.99849,15.99825c-2.20791,0-3.99949-1.7886-3.99949-3.99646,0-2.21145,1.79158-4.00241,3.99949-4.00241,2.20857,0,4.00247,1.79095,4.00247,4.00241,0,2.20786-1.7939,3.99646-4.00247,3.99646ZM11.99849,5.83593c-3.40349,0-6.15995,2.7624-6.15995,6.16586,0,3.40051,2.75646,6.16006,6.15995,6.16006s6.16292-2.75955,6.16292-6.16006c0-3.40346-2.7594-6.16586-6.16292-6.16586Z"/>
</svg>