<svg width="802" height="204" viewBox="0 0 802 204" fill="none" xmlns="http://www.w3.org/2000/svg">
<path d="M2.70801 87.7951L5.85603 75.589C6.6953 72.3348 9.63013 70.0608 12.9907 70.0608H150.988C155.997 70.0608 159.563 74.964 158.022 79.7309C153.291 94.3656 146.794 108.079 138.534 120.862C128.481 136.434 116.673 149.178 103.099 159.099C89.5391 169.021 76.3215 176.678 63.4427 182.062C50.5728 187.45 38.6459 191.343 27.6622 193.74C20.9826 195.195 14.636 196.46 8.62253 197.537C3.35777 198.48 -1.09692 193.612 0.239634 188.433L3.66475 175.161C4.40775 172.282 6.84352 170.198 9.78882 169.79C16.4044 168.874 23.3883 167.488 30.7331 165.64C39.9181 163.33 49.9273 159.827 60.7664 155.119C71.598 150.417 82.8216 143.277 94.4307 133.693C102.972 126.653 110.257 118.172 116.285 108.258C119.28 103.332 115.756 97.0035 109.991 97.0035H9.84271C5.02654 97.0035 1.50522 92.4587 2.70801 87.7951ZM20.6045 25.9458L23.628 14.252C24.4689 10.9999 27.4027 8.72819 30.7616 8.72819H150.941C155.773 8.72819 159.297 13.301 158.066 17.9735L154.985 29.6674C154.133 32.9034 151.207 35.1585 147.86 35.1585H27.7381C22.92 35.1585 19.3984 30.6104 20.6045 25.9458ZM380.461 4.8762C386.814 4.8762 390.187 12.3488 385.991 17.1198C380.413 23.4627 373.557 30.7569 365.423 39.0052C352.208 52.4124 339.938 63.3734 328.596 71.9006C327.283 72.8877 326.352 74.2564 325.927 75.8429L293 198.542C292.136 201.761 289.218 204 285.884 204H273.62C268.777 204 265.251 199.408 266.502 194.729L290.458 105.096C291.194 102.345 288.196 100.083 285.777 101.585C266.109 113.802 242.941 125.235 216.274 135.89C210.653 138.136 204.846 133.006 206.394 127.155L209.423 115.706C210.017 113.461 211.646 111.646 213.803 110.788C229.309 104.619 244.409 97.6731 259.085 89.9449C274.857 81.647 292.011 70.2707 310.565 55.816C328.312 41.998 345.133 25.8724 361.034 7.43907C362.428 5.82332 364.452 4.87612 366.586 4.87612L380.461 4.8762ZM416.663 193.417L467.813 5.43373C468.686 2.22607 471.598 0 474.923 0L488.412 0C493.262 0 496.789 4.60509 495.525 9.28781L479.328 69.3143C478.064 73.9971 481.591 78.6021 486.441 78.6021H558.401C563.27 78.6021 566.801 83.2408 565.503 87.9338L561.844 101.169C560.961 104.363 558.055 106.574 554.742 106.574H474.792C471.477 106.574 468.57 108.788 467.689 111.983L444.154 197.31C443.273 200.506 440.366 202.72 437.051 202.72H423.773C418.916 202.72 415.388 198.103 416.663 193.417ZM584.255 6.84707C600.677 4.46402 598.18 25.5027 585.584 31.5195C575.192 36.4832 566.733 30.3607 570.435 18.9079C572.213 13.4067 578.44 7.69109 584.255 6.84707ZM547.538 17.3379C563.959 14.9548 561.462 35.9935 548.866 42.0103C538.474 46.9741 530.015 40.8515 533.717 29.3987C535.495 23.8975 541.722 18.1819 547.538 17.3379ZM800.536 8.79224L766.886 10.7772C766.83 10.7804 766.775 10.7821 766.719 10.7821H670.037C669.706 10.7821 669.426 10.9627 669.337 11.2815C668.436 14.5037 663.443 32.3592 662.267 36.5724C662.139 37.0312 662.51 37.4633 662.986 37.4633C696.026 37.4608 717.653 37.3273 727.877 37.0521C728.725 37.0293 729.05 38.1307 728.341 38.597L625.665 106.165L624.488 107.778L616.986 134.739C616.27 137.315 619.181 139.367 621.366 137.826L639.959 124.714C649.359 117.876 659.381 112.185 670.017 107.652C680.663 103.114 693.267 100.425 707.826 99.5643C724.456 99.2263 735.066 102.09 739.659 108.159C744.241 114.239 744.989 122.752 741.89 133.693C740.321 139.85 737.217 146.012 732.59 152.174C728.982 156.96 725.079 160.819 720.873 163.747C719.22 164.899 716.862 164.079 716.403 162.117C714.885 155.641 712.395 149.378 708.927 143.318C704.779 136.083 697.013 131.099 685.622 128.349C685.502 128.32 685.372 128.294 685.25 128.275C674.571 126.604 665.4 127.516 657.739 131.004C650.031 134.508 643.784 139.046 639.001 144.598C634.222 150.161 631.171 155.596 629.866 160.892C627.605 169.62 628.256 177.488 631.828 184.5C635.392 191.517 641.402 196.306 649.854 198.873C659.986 202.12 671.09 203.104 683.163 201.823C695.247 200.537 707.067 197.29 718.653 192.07C719.231 191.81 719.772 191.472 720.344 191.199L756.092 181.885C756.741 181.716 756.593 180.474 755.928 180.514L736.109 181.683C736.161 181.644 736.209 181.599 736.261 181.56L773.423 171.876C774.119 171.695 773.956 170.665 773.238 170.707L746.876 172.262C747.899 171.244 748.962 170.309 749.958 169.236C759.255 159.227 765.712 147.549 769.328 134.211C772.571 121.554 773.015 110.259 770.633 100.338C768.238 90.4161 760.99 83.2297 748.857 78.7785C738.283 74.9054 725.25 75.0553 709.757 79.2295C708.596 79.5423 707.883 78.009 708.893 77.3568L768.051 39.1531C768.755 38.6987 768.443 37.6074 767.606 37.6036C763.194 37.5842 754.627 37.5432 749.284 37.5175C748.345 37.513 748.139 36.2062 749.022 35.8844L791.606 20.3588C791.948 20.2294 791.85 19.4771 791.494 19.4982L774.193 20.5188L800.884 10.4203C801.786 10.079 801.499 8.73549 800.536 8.79224ZM689.53 176.384C687.433 177.076 684.683 177.515 681.272 177.703C676.692 177.954 671.612 177.34 666.038 175.855L665.472 175.657C660.018 173.272 656.731 170.064 655.602 166.03C654.454 161.922 655.663 158.198 659.234 154.863C662.748 151.583 667.501 150.162 673.512 150.608C673.707 150.623 673.915 150.652 674.107 150.692C679.129 151.76 683.208 154.434 686.347 158.715C689.219 162.627 690.912 167.542 691.44 173.456C691.556 174.746 690.759 175.979 689.53 176.384Z" fill="#4F94BD"/>
</svg>
