<?xml version="1.0" encoding="UTF-8"?>
<svg id="_レイヤー_1" data-name="レイヤー_1" xmlns="http://www.w3.org/2000/svg" version="1.1" viewBox="0 0 168.1241 80.02112">
  <!-- Generator: Adobe Illustrator 30.0.0, SVG Export Plug-In . SVG Version: 2.1.1 Build 123)  -->
  <defs>
    <style>
      .st0 {
        fill: var(--colors-semantic-logo-main);
      }

      .st1 {
        fill: var(--colors-semantic-logo-accent);
      }
    </style>
  </defs>
  <path class="st1" d="M76.23875,12.15871c6.66753-.92307,5.67,7.33336.52494,9.69234-5.14494,2.35898-7.66493-.46159-6.14247-4.97435.73507-2.15391,3.25507-4.4103,5.61753-4.71799Z"/>
  <path class="st0" d="M9.66876,68.87671h.26249c3.88504-.56406,6.24751-1.9487,7.29751-4.20508l7.66494-19.74362h.10506c.31494-.1026.63-.1026.94494-.1026,2.83506,0,4.4626,2.82057,5.67,4.97435,1.3126,2.2565,2.41507,4.46158,3.46507,6.56419,2.88753,5.69231,5.61753,11.07682,11.28753,15.94869,7.40247,6.41029,22.41753,11.38464,31.23753,4.10248,1.26-1.02553,3.25493-3.9487,2.73-5.28203-.21-.46146-.73506-.71797-1.62753-.71797-.84,0-1.94247.25651-3.09753.56419-1.15493.25638-2.36247.56406-3.41247.61537-9.24.51276-18.06-4.1026-24.15-12.66666l-9.60754-15.9487h.26247c6.61506-1.84622,13.02-5.64102,17.53506-10.46159,3.57-3.84609,7.66494-10.1026,6.66753-18.25638-.4726-4.00001-3.57-8.25642-7.66507-10.61539C48.93875-.09764,40.01369-.96943,30.24875,1.08185,21.58629,2.928,12.92375,7.08185,6.99125,12.10749,4.99625,13.85106.21875,18.41512.00875,23.54337c-.105,2.30768.735,4.35898,2.52001,6.20508,1.10249,1.12825,3.83249,2.56419,5.51249,2.1539.68251-.15391,1.10251-.56406,1.31251-1.28203.21-.61537-.105-1.07695-.47251-1.69232-.26249-.46159-.525-.87174-.63-1.43594-.84-5.74362,4.095-10.30768,8.39997-13.07695,5.30247-3.43583,11.76-5.69224,15.80247-6.30763,9.5026-1.53846,16.74754.71796,19.32013,6.10255,2.62494,5.43594-.15754,12.46159-7.29753,18.35898-3.83247,3.17943-11.02507,6.76927-16.90507,7.17943-.26247,0-.36753,0-.47247-.10248-.10506-.1026-.10506-.25638-.05247-.46159l9.55493-24.41029v-.25638c-.05247-.30768-.21-.51276-.3674-.61537-.36753-.25638-.94507-.1026-1.57506,0-5.04.97435-8.4,3.28203-10.29,7.12825-3.83247,7.9487-7.03506,16.61537-10.13247,25.02565-2.57253,7.02552-5.25004,14.25638-8.24253,21.02553-.15751.71797-.105,1.23086.21,1.58984.63.61537,2.15249.41016,3.36.25638l.105-.0513ZM66.57876,31.64572c-1.94247,4.1026-4.30507,9.89752-6.14247,15.07695l-.10506.25638c-1.57494,4.41028-3.9374,11.07695,1.94246,13.33333,3.2026,1.23086,6.72.66667,10.44753-1.64102,2.1-1.33333,4.77754-1.12812,6.66753.41029,1.89,1.53842,4.51494,2.0513,7.66494,1.48724,1.78507-.35898,3.51753-1.07695,5.30259-2.20521,2.04741-1.33333,4.83-1.02565,6.77247.66666,2.46753,2.25638,7.03494,1.53854,10.18494,0,.57753-.30768,1.15506-.66666,1.78507-1.12812,2.15246-1.69232,5.30246-1.53854,7.24494.25638,1.05.97435,2.36259,1.69232,3.77999,2,3.15.71797,6.61507-.25638,10.23805-2.76927,2.20468-1.53842,5.19636-1.43594,7.08702.25638,2.36233,2.1026,5.40701,3.02565,9.13532,2.76927,7.19169-.46159,14.22701-5.12825,17.74467-9.28203,1.26001-1.48724,2.41533-3.17956,1.41766-4.66667-.31533-.46159-.63063-.71797-.99767-.71797-.89298-.0513-1.89064,1.07695-2.73063,2-.31404.35898-.62935.71797-.8917.97435-3.46468,3.02565-10.81533,6.25638-15.01533,4.30768-1.15532-.51276-2.25765-2.0513-2.41532-3.28203,0-.30769,0-.51276.26233-.56407h.15766c.68234-.30768,1.52234-.51289,2.41533-.76927.89299-.25638,1.83766-.51276,2.67766-.82057,6.40468-2.71784,15.17298-9.84609,14.54235-16.97435-.31533-3.23073-3.25533-5.23073-6.03767-5.53841-6.3-.71797-11.28702,2.25638-14.3317,4.82057-5.67065,4.76914-9.39766,12.25638-9.55532,19.07683,0,.0513-.05299.15391-.05299.15391-1.88935,1.69232-6.14234,4.66667-8.97715,3.58971-1.36506-.51276-2.15259-1.8974-2.31-4.1026-.2626-3.12813.31493-4.25638,2.31-6.46146l.73494-.76927c6.61519-7.33333,12.28454-13.64101,16.32688-22.71797,1.83767-4.0513,4.25299-11.89741,1.73299-15.38458-.89299-1.28206-2.36234-1.84616-4.35766-1.79487-5.93169.20512-11.86468,7.89744-15.43467,15.02568-5.30247,10.61537-8.87247,21.53841-10.29,31.58971-.78753,1.38464-4.98753,5.38463-7.35,5.28203-.68247,0-1.15506-.35898-1.41753-1.02565-.62999-1.43593.42001-4.71796,1.05-6.71797.05247-.20508.15754-.41016.21-.61537,2.25754-7.17943,5.30247-14.41029,8.19-21.38464,2.46753-5.8461,4.98753-11.8974,7.03507-17.84612,0-.61538-.15754-1.07691-.57753-1.4359-1.47001-1.23077-5.19754-.82051-6.66753-.46154-.89246.20513-1.89.51283-2.20493,1.38462l-9.03,22.76922-.21-.15378c-6.98259-4.71797-15.33.41016-20.37,6.30768-3.78,4.35899-6.3,9.8974-7.24507,16-.78753,1.28203-4.56753,3.58971-6.72,3.64102-.68247,0-1.15493-.20521-1.41753-.61537-.7874-1.17956.2626-4.25651.84013-5.94883l.10493-.30769c1.05-2.97435,2.36247-6.0513,3.62247-8.97435,1.10247-2.56407,2.25753-5.23073,3.20247-7.79479.15753-.66667,0-1.17956-.36741-1.53854-.47247-.46146-1.36507-.61537-2.41507-.61537s-2.73.25638-3.72753.56406c-1.94246.56419-2.41493,1.38463-3.25493,3.17955l-.21-.1539ZM145.53811,44.41499c.78831-3.9487,2.52-7.43594,4.98831-10.15391.8917-.97435,3.93766-3.74349,6.14234-3.79479.57766,0,1.10234.20508,1.46936.61537.10597.1026.21065.25638.21065.46159,1.26,5.17943-7.50701,11.69232-12.6,13.12813l-.31533.1026v-.30768l.10468-.0513ZM125.01123,35.79963c.05246-1.38463.57753-2.87187,1.10246-4.35898.2626-.76927.52507-1.48724.68259-2.1539.63-2.56407,1.57494-5.02565,2.57247-7.43581.73532-1.64101,1.41766-3.43594,2.36234-5.02565.73532-1.28203,1.57533-2.51289,2.41532-3.74362.73532-1.02564,1.41766-2.10257,2.25766-3.07693.52467-.66667,1.15403-1.33333,1.88935-1.79487.52468-.35897,1.20831-.5641,1.78468-.20513.94597.61539.63064,2.41026.3683,3.23077-.42,1.48717-.99766,2.92311-1.6283,4.35892-1.26001,2.87187-2.83403,5.58984-4.40936,8.25651-1.57533,2.66667-3.46468,5.23073-5.40754,7.69232-1.20753,1.48711-2.41493,2.92305-3.72753,4.30768l-.36741.41016v-.51276l.10494.0513ZM87.89369,43.49194c1.10259-2.71797,4.98753-11.43593,9.87-10.92305.57753.05118,1.57507.41016,1.47,2.15378-.1574,4.61536-7.35,17.28203-10.71,17.74362h-.36741c-.57753,0-.99753-.20521-1.31259-.56407-1.47001-1.84622.62999-7.33333,1.05-8.41029Z"/>
</svg>