<?xml version="1.0" encoding="UTF-8"?>
<svg id="_レイヤー_1" xmlns="http://www.w3.org/2000/svg" version="1.1" viewBox="0 0 300 300">
  <!-- Generator: Adobe Illustrator 30.0.0, SVG Export Plug-In . SVG Version: 2.1.1 Build 123)  -->
  <path d="M110.52915,102.97146c-10.9784,7.23939-22.42237,14.32742-31.48139,24.03631l29.54463-20.80832,1.93677-3.22799Z"/>
  <path d="M48.2289,171.40493c1.69473-5.0034,3.06663-11.13661,5.24549-15.81719h.08073v.08073c1.04909-2.1789,4.68058-7.90862,6.37525-9.68398,1.69473-1.77541,10.32961-8.47348,11.29797-10.65238-1.04909.16141-2.09818.72627-2.74376,1.53327-2.09822,2.50172-5.72972,4.27713-7.90857,6.3753-8.63489,8.55416-12.5892,20.57845-13.63829,32.11851,2.50167.32282,1.12982-3.47008,1.29118-3.95426Z"/>
  <path d="M78.16855,184.63966v.01034c.0526-.00438.10895-.00581.16141-.01034h-.16141Z"/>
  <path d="M78.65273,127.34281v.08073c.12949-.14097.2645-.27588.39503-.41576l-.47571.33503h.08068Z"/>
  <path d="M193.40785,95.14362c1.614-4.68063,2.09822-7.66648.88773-12.66988h.08068l2.66308-1.53332c-4.43849-2.90517.64559-11.62079-5.64899-10.81379,4.76131,9.03839,1.04909,20.5785-.96841,30.02034,1.29123-.4035,1.37191-.32277,2.9859-5.00335Z"/>
  <path d="M203.17251,117.01324c-.32277-8.06998-2.25958-15.81714-2.9859-23.72571.48423-3.47013.48423-5.64899.48423-5.64899-.24209-1.04914.16141,1.45259-.56491-3.22799-.72627-4.68063-1.12977-9.44189-1.77541-14.12246-.24209-2.1789-.4035-3.7929-1.04909-6.69812-.64559-2.90517-1.69468-4.59985-4.11567-6.45598-4.5999-3.47008-10.89447-6.61734-14.44528-9.11907-3.55081-2.50167-8.31207-5.97176-9.52257-10.41024-1.12982-4.35781,4.51917-12.66988,5.16476-17.43119.48423-3.14726.24214-6.45598.24214-9.60325,0-.807,0-1.614-.56491-2.1789-.72632-.64559-2.1789-.64559-2.42099-1.614-.08073-.32282,0-.64559,0-.96841.08068-2.1789-1.93681-3.87358-5.24549-5.16481-3.30867-1.29118-8.06998-.24209-11.62079-.24209-1.53327,0-2.98585.08073-4.43849.56491-4.51917,1.614-8.47348,9.6033-7.66648,14.12246.08073.64559,4.11572,11.62079,5.0034,12.83129s2.9859,1.29118,3.7929,3.71217c2.9859,8.7963-3.22799,7.1823-6.69807,10.32956-1.614,1.45259-.24209,2.74381-3.30872,5.16481-5.40685,4.27708-13.23474,2.9859-17.51182,9.11907-1.2105,1.69468-1.93681,3.55081-2.66313,5.48758-3.22799,8.31207-.88768,8.23139-3.38935,23.80644-2.50172,15.57505-5.89112,31.15015-7.42439,47.04797-.72632,7.5858-2.5824,22.27317-1.93681,29.13266.4035,3.71217,2.09822,8.79625,5.4069,10.65238,3.63149,2.01749,4.84199-1.45264,8.71557-.807v48.25847c.4035,1.614,11.29797,2.09818,12.02429,5.89108-2.42099,13.39615.24209,26.9537,1.12977,40.26917.32282,4.68058-.24209,10.32956,0,14.12246.24214,3.7929,2.50172,8.23139,1.85613,12.66988h-3.71222c-.4035-.4035-2.25958.64564-5.16476.96841-2.25963.24209-5.9718.4035-5.24549,3.95431l8.63484,1.614c5.48763-.32282,10.00679,1.614,13.7997-3.06658.16141-9.11907-1.2105-18.23818-.64559-27.43793.64559-10.65238,3.95426-21.06268,5.48758-31.15015.56491-3.71217-2.25958-10.49097,1.614-13.39615,3.87358-2.90522,8.47348-1.53332,12.58915-.08073l.08073-.00005v16.70487c0,3.06663,5.16476,16.30137,6.13317,21.06268.56491,2.66308,3.30872,25.58185,2.25958,29.13261-.48418,1.614-4.11567,6.61739-6.05248,7.66648l-.48418.24209c.64559,1.53332,10.24888.96841,11.62074.56491.56491-.16136,4.35781-12.75056,4.35781-12.75056-7.42439-18.96445,2.90517-40.59199-1.85609-60.60553,1.85609-.08073,4.76126.64559,5.48758-1.53332-.48423-6.53666,1.45259-13.07333,1.12977-19.61004-.64559-13.39615-1.53327-27.11511-2.82449-40.3499-.72627-6.53666,0-21.70822,0-21.70822l-.96836-12.5892-.96841-3.22799-.88773-5.72967c-2.01749-1.53332-4.35776,4.11567-6.13317,6.13317-11.86288,13.31547-26.55025,24.85553-41.47972,34.62023-1.85609,1.2105-7.90857,5.32617-9.44189,5.64899-3.55076.72632-2.34026-2.34031-3.38935-3.3894-.56491-.48418-1.53332.72632-2.66313-.807-1.12977-1.53332-1.614,1.2105-.88768-9.36116.72632-10.5717,7.26298-36.79914,10.41029-47.77429,2.01749-6.85948,5.16476-13.07338,6.77875-20.01354,7.42439-5.72972,15.65578-10.24888,24.45208-13.55756,6.61739-2.50172,32.92551-10.9752,36.79909-2.66313,1.45259,3.14731,1.77541,16.38205,1.45259,20.25568-.88768,11.37865-7.90857,14.04174-8.95766,20.01354-.96841,5.4069,6.29457,22.11176,6.13317,30.58524-.16136,8.47348-9.03834,14.04174-7.50507,23.08012l4.68058-4.68058c.08073,1.614.16141,2.34031-.24209,4.92267-.4035,2.5824-4.27708,8.3928-.24209,8.23139,5.24549-.16141,6.85948-6.69807,9.44189-10.24888-.4035-14.92946,2.42099-30.7466,1.93677-45.43398Z"/>
  <path d="M111.98174,173.34169c-3.47008.24209-14.04174,6.85948-17.35046,8.06998-3.30867,1.2105-12.91197,2.9859-16.46273,3.30872v-.07039c-7.47601.62323-16.59759-.01034-24.29062-.01034-.807,0-5.4069-2.66308-6.13321,0,16.54346,2.90517,35.02373,2.9859,50.9216-2.9859,4.51917-1.69468,9.60325-5.72967,14.76805-6.37525.08068-1.69473,2.01749-2.1789-1.45264-1.93681Z"/>
</svg>