<svg viewBox="0 0 208 73" fill="none" xmlns="http://www.w3.org/2000/svg">
<path d="M97.559 52.6118C98.6907 53.0736 99.7225 54.1296 100.856 54.4314C102.216 54.7936 103.778 54.0428 105.189 54.2594C108.103 54.7067 112.577 56.3508 115.167 56.5793C117.075 56.7477 119.625 56.0698 121.917 56.3607C123.936 56.6169 127.91 58.6218 129.69 58.3342C130.816 58.1522 132.917 56.1522 134.216 55.5027C145.89 49.668 157.445 43.8082 169.247 38.6266C177.096 35.1806 185.209 31.1087 192.627 26.8609C193.932 26.1134 211.33 17.7171 189.343 34.6322C175.942 43.6137 161.039 50.6247 146.84 58.7581C146.356 59.0353 142.899 60.9774 143.645 61.5968C148.631 61.6703 154.028 62.6327 158.999 62.0719C167.654 61.0957 176.133 55.2916 184.749 54.4178C190.665 53.8178 196.225 54.6471 201.984 55.0604C203.574 55.1745 207.18 53.4473 207.38 56.3115C206.491 57.4563 194.793 56.7175 192.47 56.8237C177.08 57.5276 165.791 65.8207 150.245 65.2085C146.224 65.0502 141.93 64.0088 138.152 63.7176C134.475 63.4548 129.81 64.5367 126.218 62.929C124.869 62.3397 123.459 61.8022 122.024 61.4337C111.615 58.5289 101.499 63.6696 91.4211 65.5563C86.2936 66.6363 81.0856 67.3737 75.8434 67.4562C70.9413 67.5848 66.0854 66.8183 61.2232 66.3736C46.6039 63.9859 35.0037 75.3628 21.4416 71.8312C19.2499 71.2742 17.0724 70.4837 14.9054 69.8645C12.1299 69.073 9.33404 68.5436 6.51991 69.2008C4.52594 69.5777 2.48059 70.9198 0.482289 70.5218C-0.276992 70.2561 -0.014936 69.4296 0.417529 68.9528C1.91768 67.2647 4.26718 66.6977 6.38279 66.2656C9.8 65.6169 13.2849 66.1451 16.5689 67.1886C30.1174 72.8849 42.0788 64.0796 55.7129 62.9509C56.6677 62.8302 57.149 62.2653 57.292 61.342C58.6988 50.6982 59.0469 39.939 58.5328 29.2055C57.6242 18.4406 68.5259 22.6157 67.4505 12.0239C66.1742 2.02155 76.8162 -3.10623 84.7045 2.00877C89.0751 4.70115 86.7159 9.67235 85.5767 13.5246C83.7586 19.8137 88.092 19.9893 88.1589 24.3924C87.8365 26.5927 85.4315 26.5955 85.8409 29.397C86.381 34.8712 86.9925 40.3433 87.5693 45.8152C87.6707 46.7939 87.8765 47.7549 88.1559 48.6946C89.696 51.9293 94.6916 51.4415 97.559 52.6118Z" />
</svg>
