<svg width="96" height="56" viewBox="0 0 96 56" fill="none" xmlns="http://www.w3.org/2000/svg">
<path d="M94.3324 52.0485C88.5055 55.6321 76.9516 49.9303 67.6623 49.1613C67.0118 49.079 66.6839 48.6941 66.5864 48.0651C65.7132 41.4581 64.2565 20.8564 64.0117 19.9744C63.4651 18.0046 61.5989 16.1122 62.1306 13.9158C62.2876 13.2674 63.0147 12.8596 63.1271 12.0875C63.4538 9.84226 62.4429 3.73603 61.0552 1.79488C58.6428 -1.57966 51.3233 0.273227 49.7331 3.48804C48.493 5.99516 49.974 7.10152 50.5417 9.12352C50.7411 9.83357 50.2481 10.7046 50.4451 11.2843C50.703 12.0431 52.4451 13.6516 52.9786 14.9307C53.1497 15.341 53.0864 15.8104 52.8219 16.1665C51.7324 17.634 47.9615 22.882 47.1352 26.2999C46.7672 30.0297 46.3506 33.758 45.9575 37.4861C45.8885 38.153 45.7483 38.8077 45.5579 39.448C44.5086 41.6519 43.3273 39.7133 41.3736 40.5107C41.2774 40.5499 40.3485 41.0012 39.0587 41.6111C31.5358 37.4375 16.5768 29.9455 16.5768 29.9455C16.5768 29.9455 1.16975 23.0326 0.215889 23.3977C-0.737975 23.7629 1.77804 26.2862 1.77804 26.2862L35.0169 43.4698C32.9111 44.4025 30.9175 45.2105 30.186 45.2751C28.8859 45.3898 24.5726 45.1109 23.0108 45.3091C21.6351 45.4837 18.9776 46.6634 17.704 46.8459C16.9348 46.9561 8.29363 48.0621 7.75166 48.2387C4.35432 48.2887 -1.35983 50.633 3.25441 50.6994C5.99604 50.7389 9.98156 49.1388 12.556 48.9404C15.0607 48.7614 38.8215 47.5386 45.6878 48.8241C49.1813 49.5598 52.7297 50.0623 56.3014 50.1185C59.6413 50.2061 60.5953 51.7962 63.908 51.4932C73.8685 49.8664 81.4709 55.1815 91.0124 55.2117C94.9 55.2239 96.3363 50.8161 94.3324 52.0485Z" fill="#E9E9E9"/>
</svg>
