<svg viewBox="0 0 168 96" fill="none" xmlns="http://www.w3.org/2000/svg">
<path d="M86.3585 1.34693C86.6187 1.5609 86.8453 1.82103 87.0268 2.13911C87.5523 3.0598 87.7183 4.13716 87.981 5.1665C88.5398 7.35644 89.6306 9.55882 89.3878 11.8766C89.175 13.9084 87.8031 15.7041 87.7133 17.7346C87.6525 19.1072 88.6743 21.1396 88.7219 22.6548C90.0948 23.3351 91.6274 22.4389 92.9345 22.7443C95.2464 23.2844 100.22 28.342 101.475 30.5104C104.733 36.1413 107.053 42.9239 110.56 48.4829C111.765 52.6995 106.752 60.715 106.922 65.6159C110.148 65.8614 114.415 66.6546 116.65 69.1042C117.666 70.2179 121.451 71.5112 122.403 71.6142C128.218 72.2432 134.425 74.117 140.3 74.3231C148.619 74.6149 157.96 71.5882 165.828 71.5959C167.245 71.5973 168.336 72.1928 167.513 73.6583C166.922 74.514 149.446 77.1634 147.204 77.3304C138.295 77.9943 131.551 75.6793 123.045 74.7731C119.3 74.3741 115.983 74.6576 112.473 76.1193L112.488 77.8891C112.5 79.2272 111.471 80.3393 110.151 80.4174L92.0484 81.487C84.7891 82.0089 77.1878 85.669 70.5794 87.1063C68.5361 87.5507 64.9527 88.2078 63.0402 88.5526C61.7279 88.7892 61.1266 86.8782 62.3631 86.3746C62.3727 86.3707 62.3824 86.3669 62.3921 86.3631L65.5892 85.1343L65.2305 81.4414L50.1197 85.5085C35.3246 84.2481 26.0392 87.6592 12.9843 93.0371C8.89601 94.7212 4.34389 95.1519 0 95.7472C1.00942 92.0522 7.05156 92.479 9.85083 91.5681C15.3725 89.7711 20.3659 86.0274 26.9793 84.3319C37.9797 81.5118 49.8216 83.5351 60.4918 79.4557C61.1453 78.7224 58.9108 78.8179 58.8086 77.1197C58.7011 75.335 61.1001 71.75 60.9668 70.3348C60.7402 67.9283 57.445 62.4839 56.3646 60.0017C55.7557 58.6027 52.4436 52.714 52.2212 50.813C52.0168 49.0649 53.545 43.8083 54.1958 41.9395C55.9366 36.9411 61.4237 27.5182 62.3167 26.5472C64.5473 24.1219 74.4278 24.4011 74.9898 22.209C75.4296 20.4935 70.5583 16.8815 70.246 13.8647C70.1592 13.0257 71.0103 12.2147 71.0903 11.2669C71.2044 9.91374 70.9414 8.59691 71.1375 7.19055C71.3807 5.44708 72.4975 4.1164 73.91 3.1633C75.3057 2.22159 76.8086 0.70773 78.4163 0.194544C79.3879 -0.115623 80.4369 0.00541342 81.4465 0.144252C83.0046 0.358521 85.0849 0.299952 86.3585 1.34693ZM70.2848 66.9703C70.6844 66.2791 70.4073 52.5568 69.9578 50.978C69.3162 48.7345 67.5739 46.6441 65.9775 45.0119C64.5191 47.2316 61.9844 49.7944 62.2231 52.6559C62.5682 56.4769 63.9461 60.3708 64.8247 64.0997C65.0837 65.1987 65.3926 66.3805 66.263 67.0885C66.9894 67.6793 69.6649 68.0424 70.2848 66.9703ZM101.109 63.1218C102.013 62.7533 102.414 58.9935 102.54 58.2818C102.821 56.6948 102.906 55.0716 102.724 53.4676C102.359 50.2415 100.907 47.1919 98.8482 44.7206C98.7108 44.5557 98.3347 47.9307 98.34 48.1964C98.3741 49.9096 98.5315 51.6229 98.7222 53.3247C99.0744 56.4689 99.4392 59.556 100.441 62.5729C100.526 62.8276 100.666 63.1247 100.93 63.1492C100.992 63.155 101.052 63.1452 101.109 63.1218Z" />
</svg>
