<?xml version="1.0" encoding="UTF-8"?>
<svg id="_レイヤー_1" xmlns="http://www.w3.org/2000/svg" version="1.1" viewBox="0 0 300 300">
  <!-- Generator: Adobe Illustrator 30.0.0, SVG Export Plug-In . SVG Version: 2.1.1 Build 123)  -->
  <path d="M126.16625,115.16764c7.76272-7.52749,20.38695-1.41141,25.40527,6.9002l1.72505-.31364c1.33299-3.76375,5.48879-3.05804,8.46843-1.56823,2.97963,1.48981,5.17515,8.39001,10.19348,9.56618.94093-5.25356-2.35234-10.74235-6.19449-14.27086s-7.37066-4.23421-3.84215-4.46944c1.25459,0,6.03767,2.1171,7.29226,3.05804,5.95927,4.46944,6.03767,7.52749,8.86049,13.32993,4.70468,9.6446,11.84012,3.68533,8.46843-5.33197h2.66598c.39206,2.35234,1.64664,4.46944,1.96028,6.74338s.54888,6.50814.86253,9.56618c.31365,3.05804-3.52851,5.80244,1.88187,8.54683,4.31262,0,4.93992-2.90122,6.82179-5.41038s4.62626-2.27392,1.01934-3.84215l1.333-10.11506h2.0387c.47047,3.37169,1.01934,6.50814.62728,9.95824s-2.58757,6.27291-3.21487,9.25254-.23522,8.93889-2.90122,13.01629c4.39103,3.21487,7.76273,0,9.80141-3.99898s3.05804-11.13441,5.41038-8.78207c-.31364,8.78207-1.41139,15.99591-10.35031,19.75966,7.6843,11.21283,19.75967-1.64664,23.36657-9.95824s2.19551-9.17413,3.37168-9.17413c4.7831,2.7444-4.54785,18.03461-3.84215,18.74031,5.72402.94093,6.58655-8.07637,8.78208-9.723,1.56823-1.17617,2.82281-.07842,1.56823,1.72505l1.41139.39206.94095-4.54786c.31364-1.56823-.54889-3.13645-1.96028-3.76375h0l-.47047-21.48471-6.11608-4.93992c-.31364,2.43076,1.09775,4.7831.7057,7.21384s-1.41139,3.21487-2.43076,1.80346-1.64664-9.09572-2.7444-11.84012c-2.58757-6.11609-6.8218-10.50712-13.56515-11.7617,2.43076,6.9002,8.54683,16.6232,2.11712,22.89611-.78411-7.37066-.94095-13.8004-5.01832-20.38695-3.68534-5.95927-15.36863-14.42769-22.81771-12.62423,2.66598,3.13645,6.97861,6.11608,9.01731,9.72301s1.33299,1.88187.31364,2.43076l-9.25254-7.52749c-10.42871-6.35132-20.62219-10.3503-33.08959-10.50712-3.29327,0-9.25254.31365-11.44806,2.82281,6.66496,0,13.64357.47047,20.07331,2.43075s6.66496,2.58758,6.97861,2.7444c1.01935.7057.7057,1.33299.7057,2.43075-4.07739,1.4114-4.31262-4.23421-7.6059-3.13645l1.72505,1.72505c-49.55597-12.62423-88.60483,20.85742-104.75757,65.23824-4.62627,12.62423-5.41038,23.44499-8.3116,36.06922-1.88187,8.39002-8.9389,22.11201-17.01526,25.64052l-.39206-3.45009c2.90122-3.99898,6.1945-7.99797,8.54684-12.31059,5.64562-10.27189,5.41038-20.38695,7.99796-31.59978,4.62627-20.38695,17.79938-46.88999,33.08959-61.23926,18.26985-17.2505,40.30343-26.65986,64.06207-30.26678,8.46843-1.33299,13.72199-1.56823,22.112,1.01935,8.39001,2.58758,5.80244,2.97963,7.21384,3.13645s2.1171-1.01935,3.37169-1.17617c3.84215-.47047,15.83909,2.27393,19.52442,3.99898,3.21487,1.48982,7.37066,7.13544,9.01731,7.6059,4.15579,1.25459,7.44908-.7057,12.4674,2.7444,5.01832,3.45009,5.72402,7.05702,8.15478,9.17413,1.64664,1.41141,3.92057,1.33299,5.56721,2.7444,4.62626,3.99898,6.8218,14.66292,7.13544,20.46537.07842,1.56823-.86253,3.29327-.54889,5.48879.54889,3.37169,3.60693,5.01832,2.58757,10.27189s-5.80244,5.41038-7.99797,7.6059-1.48981,5.64561-4.54785,6.9002-5.64563-.31364-7.6843,0-5.17515,3.92057-8.62525,4.46944c-8.54683,1.48981-9.33095-.47047-14.89816-4.93992s-3.92057-1.01935-5.48879-4.1558c-2.90122-5.56721-.31364-9.17413.78411-14.34928-5.17515-1.17617-8.54683-.7057-11.21283-5.80244-1.41141-2.66598,0-5.41038-5.48879-3.60693-5.48879,1.80345-7.84114,7.05702-9.33095,8.70366-15.76069,17.87779-20.23013,41.55802-3.84215,60.76881,16.38797,19.21078,12.389,10.50712,17.79937,10.74236,5.41038.23525,2.58758-2.19551,4.07739-3.45009,10.50712-8.93889,21.32789-13.48676,34.18734-17.87779,6.97861-2.35234,14.74132-2.43076,21.24948,1.33299,6.50813,3.76374,12.62423,14.5061,7.6843,21.40629-3.92057,5.41038-11.91853-4.62626-15.60385.39206s1.48981,7.60591,2.82281,9.80142c4.93991,8.07636,13.09471,12.38898,22.58246,12.15376,2.58757,0,10.66395-2.11712,11.68329-1.96028s.86253.47047,1.17617.86253l.54889,2.0387c-.7057,2.7444-13.32993,4.0774-16.23116,3.92057-10.11506-.47047-18.89714-5.41038-24.07229-14.03563l-4.70468-10.19348c-1.01934,9.64459,6.35132,18.74031,13.87882,23.91546,2.19551,1.48981,11.05601,4.93991,11.05601,7.6843-.7057,2.50917-3.60693,3.76374-5.88085,4.54785-10.82076,3.84215-29.95315.62728-40.14662-4.31262-14.97657-7.13544-15.13339-19.60284-34.26576-23.28818-27.44397-5.41038-36.30446,24.07229-64.06207,18.26984-42.02848-8.86047-57.24029-60.45516-30.89407-92.68221,1.80346-2.19552,11.13441-9.40936,11.36965-10.19348s.15682-1.41141-.54888-2.0387c-3.92057-1.80346-5.48879,4.1558-9.01731,3.52851,2.82281-4.62626,6.66496-9.25254,10.74235-12.85946,7.21384-6.50814,8.15478-5.88085,17.17209-7.84114,5.09674-1.09775,6.97861-2.58758,13.40835-1.88187,7.21384.78411,12.93787,10.97759,18.97554,4.39104.94093-7.6059-7.05702-11.84012-13.72199-11.99694v-2.0387c6.19449-2.50916,9.80142,2.0387,15.29021,2.7444,0-1.56823.39206-3.13645-.62729-4.54786s-6.11609-3.05804-6.66496-3.05804h-10.03666.23524l.00007.0784ZM161.52977,136.02507c-2.58758,1.09775-5.48879,3.37169-7.6059,5.17515-23.44499,20.23013-28.54174,46.88999-12.31058,73.39303,3.13645,5.17515,3.68533,5.95927,8.70366,8.62525s2.66598,2.90123,3.68533,1.88187c-5.09674-5.56721-11.05601-10.82076-13.87881-18.03461-7.99796-20.07331-5.48879-41.55802,8.70366-57.94598,14.19246-16.38797,9.09572-8.31161,12.85946-13.17311h-.15682v.0784ZM119.26606,137.43647c-1.17617-.23524-1.80346.54888-2.66598,1.09775-23.83705,14.89816-32.69753,45.08653-25.24845,71.58957,7.44908,26.50303,14.74134,25.64052,28.30649,30.73726,1.48981-1.25459.23524-1.09775-.62729-1.48981-8.07637-3.76374-20.0733-21.48471-22.50406-30.3452-.7057-2.58757-1.96028-10.66395-2.19552-13.72199-1.01935-17.2505,1.01935-29.79631,11.44806-43.98877,3.92057-5.25356,8.46843-9.723,13.48675-13.87881ZM127.57765,142.29798c-1.33299-.31364-1.64664.7057-2.43076,1.41141-21.48471,17.95619-24.54276,58.65169-7.29226,80.1364,1.80346,2.19551,17.56414,17.17208,19.44602,15.60385-4.54786-5.95927-11.44806-10.03664-16.30956-15.91749-14.19246-17.09366-13.48675-50.34008-2.27392-68.92357,2.66598-4.46944,6.35132-7.76272,8.86049-12.23218h0v-.07842ZM165.68558,226.90382c-15.52545-13.1731-23.44499-28.69856-21.4063-49.55597,1.56823-16.07433,8.70366-21.4063,17.56414-33.08959.39206-.54888,1.88187-1.33299.7057-2.0387-2.35234,3.52851-6.11609,5.33197-9.01731,8.31161-15.52545,15.68227-18.19143,40.85232-6.9002,59.67104,11.29123,18.81872,11.05601,15.36863,19.05396,16.70161h.00001ZM173.36989,223.45372c-19.3676-12.15376-24.69958-33.01118-18.26985-54.65271,6.42973-21.64153,6.11609-13.01629,10.97759-18.89714,4.8615-5.88085,1.80346-1.41141.7057-2.1171-5.72403,5.88085-12.389,10.66395-15.44703,18.58349-5.88085,14.97657-3.52851,29.48266,4.39104,43.12625,2.66598,4.62626,9.80142,13.87882,15.2118,14.66293.7057.07842,2.66598.47047,2.43076-.7057h0v-.00002ZM130.47887,200.40079c-3.21487-3.05804-2.19552-22.97453-1.33299-27.75761,1.48981-8.07637,5.33197-14.74134,8.86049-22.03359-27.67921,35.99081-8.70366,68.45312,7.68431,78.01929,16.38798,9.56617,4.1558,2.58757,4.7831.7057-4.31262-2.97962-9.48778-8.07636-12.389-12.62423s-6.42973-11.60487-5.72403-15.83909c-.39206-1.17617-1.80346-.39206-1.96028-.47047h.0784ZM141.22124,230.58916c-1.09775-1.25459-2.97963-.86253-2.19552-3.76374-3.29327-.31364-5.17515-2.82281-7.29226-5.17515-11.52647-12.93787-14.11404-40.69549-8.86049-56.69141s4.31262-7.13544,4.31262-10.97759c-8.07637,10.66395-12.389,22.97453-12.15376,36.38287.23524,14.5061,5.64561,27.13033,16.6232,36.77492,4.31262,3.76374,9.95824,8.78208,15.99591,7.99797-.78411-1.333-2.97963-.94095-4.54786-2.0387s-1.25459-1.80345-1.96028-2.58757h.07842v.07839ZM129.61635,241.48833c-5.88085-5.80244-12.62423-10.82076-17.2505-17.79939-9.48778-14.58452-11.52647-38.34315-7.44908-55.04477l4.1558-12.4674c-5.01832,4.7831-7.37066,10.03666-9.09572,16.6232-.86252,3.45009-.78411,4.31262-.94093,7.37066-1.17617,23.20976,0,36.22605,17.9562,52.77083,3.45009,3.13645,8.15478,7.44908,12.4674,8.62525h.15682v-.07839ZM86.64693,168.64419c-1.64664-.31364-1.25458.31364-1.80346,1.25459-2.27393,4.1558-3.37169,18.26985-3.37169,23.36658.23524,18.0346,9.56618,43.28306,28.77696,48.22297-2.19552-2.11712-4.93992-3.45009-7.29226-5.48879-12.62423-11.13442-19.21078-26.34622-18.97554-43.43988,0-6.97861,2.58758-14.42768,3.05804-21.09265s-.15682-1.80346-.39205-2.82281ZM100.83939,242.50767c-21.95518-19.68125-22.89611-32.54071-23.99387-61.00403,0-.86253.54888-2.58758-.7057-2.43076-9.01731,21.95518-3.29327,47.83091,16.85844,61.23926,3.05804,2.0387,7.13543,4.70468,10.89917,4.70468l-3.05804-2.43076h0v-.07839ZM244.56739,209.10446c-5.95927-5.48879-15.76069-5.72403-22.73929-2.0387-1.56823.78411-1.88187,2.35234-3.92057,2.97962-9.25253,2.82281-13.1731,1.88187-21.64154,8.86047-8.46844,6.97861-13.32993,13.56515-11.7617,14.89816,2.35234,2.11712,6.03767-6.03768,7.37066-7.60591,2.19552-2.58757,4.1558-4.7831,7.91955-4.23421.62729.54889-4.8615,6.42974-5.41038,7.37066-.94093,1.64664-1.96028,3.45009-2.19552,5.41038s-.39206,1.96028.7057,1.72506c0-3.37168,8.39001-13.01629,11.84011-10.74236,1.72506,1.80345-2.0387,3.76374-3.05804,5.25357s-5.64561,8.31161-4.23421,10.35031c4.62626,2.43076,3.21487-4.7831,4.62626-7.91955s4.86151-6.27291,7.29225-6.66496,5.09674,1.56823,6.19449,0c1.01934-1.48981-3.21487-5.80244.62728-8.39002,3.76374-2.50917,11.68329,5.17515,14.03563,2.66598,2.27392-2.35234-.78411-5.09674-1.80345-7.21385l1.01934-1.64664c3.60693,0,4.7831,3.45009,6.90019,5.56721,1.48981.62728,1.17617-2.43076,2.43076-3.13645,4.31262-2.66598,4.62626,5.88085,7.99797,6.27291,6.19449.7057.54889-9.56619-1.96028-11.91853l-.23522.15683.00002.00005ZM224.72933,229.02093c-3.29329-.47047-.94095,5.80244-.31364,7.60591,2.35234,7.37066,9.723,17.2505,17.64255,18.74031l-8.31161-7.29225c-4.0774-5.41038-9.33095-11.99693-9.01731-19.13236h0v.07839ZM218.45642,233.17673c-4.23421.39206.39206,9.723,1.72506,11.84012s6.90019,8.54683,7.99797,7.60591c-2.58757-3.68534-6.8218-7.6843-8.62525-11.84012-.94095-2.11712-2.0387-5.48879-1.09775-7.60591h-.00002ZM205.59696,243.91909c-.31364-.47047-.47047-1.72506-1.01934-.62728.07842,2.50917-1.09775,6.42974,2.7444,5.88085,0-2.27392-.39206-3.52851-1.72506-5.25357ZM109.8567,263.67874c-.7057,0-1.48981-1.80345-1.01935.7057,3.92057-.23522,8.07637,3.37168,11.60488,3.99898,6.82179,1.25459,18.11303-6.19449,25.01322-7.99797,8.54683-2.19551,17.2505.94095,24.93481,4.46946.54888.23522,2.82281,1.48981,3.60693,1.88187,12.4674,6.66496,23.99388,16.70161,38.18633,19.83806-.39206,1.56823-1.88187,1.333-3.05804,1.41139-18.34825,1.333-36.85333-25.32686-59.67104-23.60182-.94093,0-4.23421.31364-4.54786,1.333,19.13236-1.09775,31.7566,14.74132,48.22298,21.56312,16.46637,6.8218,6.03767.39206,7.99796,3.76374.62728,1.48981-1.56823,1.09775-2.43076,1.01934-17.95619-1.17617-30.97248-19.68125-48.92868-20.77901l15.91751,7.37066c1.33299,3.45009,15.2118,10.27189,15.83909,11.52648s.07842,1.80345.15682,2.66598c-11.21283-.47047-18.11303-11.60487-27.52238-15.8391-1.96028-.86253-8.39001-3.92057-8.54683-.07842,5.25356-1.96028,11.7617,2.90123,15.60385,6.19449.86253.7057,8.54683,8.54683,7.99796,9.01731-9.56618-1.41139-13.56517-12.78104-23.99388-13.09471-1.88187-.31364-.47047.94095,0,1.333,2.27392,1.80345,4.70468,1.88187,7.13544,3.29329s4.31262,4.23421,6.42973,6.03768l-2.0387-.39206-.15682,1.88187c-.78411,1.17617-7.44908-1.41139-9.09572-2.0387-6.35132-2.43076-15.2118-6.19449-21.09265-9.40936-8.70366-4.7831-24.2291-19.05395-33.71688-18.66189-17.01526.7057-35.59875,16.78002-51.8299-1.96028-3.13645-3.60693-10.03665-13.01629-7.29226-17.64255,5.48879,6.42974,9.33095,16.93686,18.42667,19.44601-5.80244-7.60591-14.74133-15.52544-13.17311-26.34622,6.03767,8.93889,11.056,17.48572,19.75966,24.30752l1.01935-2.43076c0-.62728-1.09776.31364-2.1171-.62728-2.82281-2.50917-10.74236-13.8004-11.91853-17.2505s-2.35234-9.56619.54888-10.89917c1.33299-.31364,1.01935.47047,1.33299,1.41139,2.43075,6.42974,3.21487,11.36965,7.99796,16.93686,1.41141,1.64664,3.29327,2.66598,4.39103,3.92057,3.52851,4.15579,3.99898,7.60591,9.25254,10.19348s1.72505,1.333,2.27393-.23522-1.88187-1.09775-2.43075-1.72506c-5.64561-5.72402-12.78105-15.05499-15.60386-22.58246s-3.84216-11.44806-2.7444-16.30955c4.31262,3.37168,4.93992,10.4287,7.05702,15.44705,4.8615,11.21281,14.34928,18.89714,24.77799,24.77799.31365-1.333-.7057-1.64664-1.41141-2.35234-3.29327-3.13645-7.68431-5.64563-10.89918-9.17414-9.25254-10.27189-15.05498-25.24846-14.74134-39.12726l7.05702,18.97556c4.78309,10.4287,11.60488,18.97556,21.17106,25.32686,2.43075,1.56823,6.03767,4.39104,8.54684,2.90123l-15.2118-12.15376c-13.56517-15.05499-18.42667-33.32482-16.70162-53.39813.23524-3.21487,1.25458-9.01731,4.1558-10.74235-2.7444,24.77799-.31365,48.53663,19.75966,65.23824,2.43075,2.0387,16.30956,11.68329,18.58349,12.70265s14.11404,2.19551,17.48573,1.88187c7.76272-.7057,16.23115-5.01832,23.68023-6.19449,1.25459-.15683,9.33095-.94095,9.25254.94095-2.35234,2.35234-5.88085,1.64664-9.17413,2.66598-7.05702,2.11712-15.44703,6.74338-23.13135,6.74338h-11.13441.15682v-.07842ZM45.01051,270.65737c6.1945-.47047,12.23217,1.64664,18.42667,1.41139,12.389-.47047,19.91648-6.35132,33.08959-3.29329,10.89917,2.58757,24.38593,11.44806,34.50099,16.78002,5.01832,2.66598,10.42871,4.54785,15.2118,7.60591l-1.80346,2.35234c-1.01935.39206-2.0387,0-3.05804-.23522-3.84215-1.01934-12.78105-6.03768-16.85844-8.07636-8.15478-4.0774-19.68125-12.15376-28.14968-14.19246-15.68227-3.68534-28.93379,6.8218-46.88999,1.09775-.7057-.23522-5.80244-2.27392-4.46945-3.52851h0v.07842ZM260.87696,268.30503c3.13645,2.90123-10.97759,5.41038-12.15376,5.56721-14.89816,1.48981-41.16596-.31364-54.26065-8.15478-5.33197-3.21487-10.19348-9.17414-15.68227-12.78104s-7.37066-3.13645-11.60488-5.09674-1.72505.07842-1.41141-1.72506c4.23421.39206,9.01731,1.01934,12.93787,2.66598,6.9002,2.7444,11.44806,9.87983,18.50508,13.40835,12.78105,6.35132,35.9124,8.78208,50.10486,7.52749,4.39104-.39206,8.78208-2.19551,13.56515-1.41139h0v-.00002ZM167.80268,260.22864c-1.01935-1.01934.07842-1.25459,1.01935-1.41139,7.05702-.94095,17.48573,8.07636,23.91546,11.44806,8.3116,4.39104,18.19143,7.91955,27.52238,9.25253s8.86047,0,12.38898.78411c3.99898.86253.62728,2.97962-2.11712,3.37168-22.1904,3.05804-43.12624-11.05601-60.45516-22.73929-.7057-.47047-2.19552-.7057-2.27392-.78411h0l.00002.07842ZM123.57868,75.80515l-2.97963-2.1171c-6.42973-17.09368-11.7617-34.65782-17.79937-51.90831-1.01935-2.90122-6.1945-13.40834-5.72403-15.13339,1.80346-6.66496,5.64561,2.90122,6.50814,4.93992,6.03767,15.13339,12.31058,35.28511,17.09368,51.04579.54888,1.88187,3.60693,12.389,2.90122,13.0947h0v.0784ZM72.68971,102.3866c-2.43075.23524-4.31262-1.56823-6.1945-2.82281-8.15478-5.48879-23.20976-17.09368-30.18837-23.83705s-3.29328-2.58758-2.7444-5.48879c1.88187-1.96028,12.62423,8.62525,14.5061,10.19348,8.54684,6.82179,17.56414,13.40834,24.62117,21.95518ZM208.10611,49.06688h-3.84215c0-.54888,0-1.09776.15683-1.72505,1.01934-4.31262,10.35031-24.93481,12.85946-29.40426,3.13645-5.64562,5.88085-2.43075,4.62626,2.27393-1.41139,5.17515-7.84114,14.66292-10.50712,20.07331-2.66598,5.41038-2.27392,5.88085-3.37168,8.78207h.07839ZM186.30776,24.05366c.39206,4.93991-2.27392,9.40936-3.52851,14.11404-2.82281,10.27189-4.31262,22.8177-10.58553,31.36454l10.11506-43.5183c.47047-2.11711,2.1171-2.0387,3.99898-1.88187h0v-.07841ZM290.2028,176.40691c2.50917,0,11.13442.62729,5.64563,3.92057-3.68534,2.19552-10.35031.23524-14.42768.47047-3.52851.15682-10.27189,2.43076-13.40835,2.27392-2.43076-.15682-3.68534-2.19552-.86253-3.99898s18.19144-2.66598,23.05293-2.66598ZM281.8912,95.25117l-.47047-1.41141c-1.64664.62729-1.25459,2.90122-1.96028,3.52851-2.19551,2.03869-15.44705,9.80142-18.26984,10.74235s-4.46946,1.25459-4.46946-.54888,9.09572-6.50814,10.50712-7.44908c3.84215-2.58758,13.32993-9.09572,17.09366-10.3503s2.97962-.15682,4.46946,1.41141l-6.97861,4.1558h.07842v-.07842ZM86.01964,85.92021c-1.17617,1.33299-10.11507-8.78207-11.36965-10.19348-2.43075-2.66599-11.21283-12.62423-12.31058-15.13339s-.86252-1.80346-.62729-2.90122c2.90122-.54888,4.54786,1.56823,6.27291,3.52851,4.31262,5.09674,14.34928,16.07433,17.32891,21.09265.7057,1.25458.94093,2.1171.7057,3.52851h0v.0784ZM245.03786,38.95182c0,1.33299.15683,2.82281-.15683,4.1558s-13.1731,17.09368-14.66293,18.19143-1.56823,1.48982-3.13645,1.17617c-.15683-1.33299,0-2.50916.62728-3.68533.94095-2.1171,13.09471-18.19143,14.66293-18.97555s1.48981-1.09776,2.7444-.78411h0l-.07839-.07841ZM270.91361,127.47824c-.15683-.15682.94095-1.96028,1.333-2.35234,1.333-1.17617,18.34825-8.31161,21.17106-9.17413s5.72402-2.1171,6.50813.23524-4.86151,4.07739-6.8218,4.8615c-4.46946,1.80346-13.56515,5.33197-18.03461,6.27291s-2.7444.23524-4.15579.15682ZM158.07968,27.19011l-1.56823,34.03053c-5.25356,1.64664-2.50916-7.99796-2.35234-10.97759.31364-7.44908.23524-14.97657,1.17617-22.34723l2.7444-.78411h0v.07841ZM257.58368,71.88458l-.7057,4.1558-19.99489,19.28919c-2.11712-1.33299-.86253-3.84216.39206-5.17515s2.0387-.39206,2.19551-.54888c4.7831-4.70468,9.33095-12.46741,15.05499-16.6232s1.56823-1.48982,3.13645-1.09776c0,0-.07842,0-.07842,0ZM132.90963,21.07403c1.17617,2.43075,1.80346,4.93992,2.27392,7.52749.86253,4.93991,2.35234,13.8004,2.58758,18.58349s.54888,3.76374-1.17617,5.09674c-.94093-.78411-1.48981-1.72505-1.80346-2.90122-1.48981-5.88085-3.60693-16.62321-4.07739-22.58247s0-3.92057,0-5.88085h2.27392v.15682h-.0784ZM27.28954,162.76334c.23523,1.09775-.31365,1.88187-1.33299,2.19552s-16.15274-1.09775-18.50508-1.64664-4.93992-1.56823-4.46945-4.54786c8.07637,1.25459,16.46638,1.25459,24.30752,3.92057h0v.07842ZM23.36897,111.79597c-1.96028.15682-3.76374-.47047-5.48879-1.17617s-14.81975-7.44908-15.29021-8.23319-.39206-2.1171-.39206-3.13645c1.09776-1.17617,15.60386,6.58655,17.48573,7.91955s4.70468,3.68533,3.68533,4.54786h0v.0784ZM224.65091,66.39579c.62728,3.4501-1.80345,5.88085-3.60693,8.54684s-8.46842,10.82077-9.723,9.48777c-.31364-3.68533,2.82281-6.74337,4.86151-9.6446s6.90019-10.11507,8.46842-8.39001ZM89.15609,56.98642c-1.09776,0-1.48982.23524-2.35234-.54888s-8.3116-13.87881-8.46843-14.89816c-.39206-2.82281,1.64664-3.37169,3.68533-1.25458s8.23319,15.68227,7.13544,16.70161ZM22.42804,136.966v2.27392c-6.27291,1.33299-11.91853-3.29327-17.9562-4.31262l-.78411-3.52851c1.25458-1.25459,16.07433,4.8615,18.74031,5.56721ZM102.48602,79.72572c-3.60692-3.52851-8.23319-9.6446-10.50712-14.19245s-3.13645-5.72403-.86252-6.1945,11.44806,16.93685,11.36965,20.38695ZM266.20893,203.45883h14.5061c2.66598,0,6.42974,3.99898,1.56823,4.70468-1.17617.15683-10.89917-.78411-12.15376-1.09775s-4.0774-1.48981-3.84215-3.60693h-.07842ZM30.50441,117.91204c-.47047-.78411,0-2.0387-.15682-2.97963,1.4114-1.48981,15.9175,4.46944,17.2505,7.44908-.86252,1.17617-1.17617,1.17617-2.50916,1.01935s-14.11404-4.7831-14.5061-5.48879h-.07841ZM17.88018,189.34479c.31365,1.64664-.78411,1.80346-1.88187,2.43076-2.50916,1.25459-14.27087,4.07739-15.76068,1.56823s4.46945-3.92057,5.56721-3.92057h12.15376-.07841v-.07842ZM202.69573,56.98642c1.01934.94093-6.19449,17.17209-9.40936,18.03461-.78411-2.66599,6.11609-21.17106,9.40936-18.03461ZM280.08774,151.94257c1.88187-.23524,4.31262-.86253,5.64563,1.01935,0,2.19552-13.64357,6.9002-15.68227,3.92057-.47047-2.19552,8.31161-4.62626,9.95825-4.8615h0l.07839-.07842ZM35.83638,143.16051c-1.80346.07842-10.74236-.78411-10.19348-3.52851s13.01629.7057,10.19348,3.52851ZM19.4484,212.86819c1.17617,3.76374-8.07637,5.88085-8.62525,3.52851-.62729-2.66598,6.74338-4.0774,8.62525-3.52851Z"/>
</svg>