<?xml version="1.0" encoding="UTF-8"?>
<svg id="_レイヤー_1" data-name="レイヤー_1" xmlns="http://www.w3.org/2000/svg" version="1.1" viewBox="0 0 833.82666 50.5">
  <!-- Generator: Adobe Illustrator 30.1.0, SVG Export Plug-In . SVG Version: 2.1.1 Build 136)  -->
  <defs>
    <style>
      .st0 {
        fill: var(--colors-semantic-border-default);
      }
    </style>
  </defs>
  <path class="st0" d="M791.96143,50.5c-13.90332,0-27.98828-8.44141-41.86426-25.08984-13.77539-16.5293-27.73145-24.91016-41.47949-24.91016s-27.70361,8.38086-41.47998,24.91016c-13.87549,16.64844-27.96094,25.08984-41.86426,25.08984s-27.98828-8.44141-41.86377-25.08984c-13.77637-16.5293-27.73242-24.91016-41.48047-24.91016s-27.7041,8.38086-41.47998,24.91016c-13.87549,16.64844-27.96094,25.08984-41.86426,25.08984s-27.98877-8.44141-41.86377-25.08984c-13.77637-16.5293-27.73242-24.91016-41.48047-24.91016s-27.7041,8.38086-41.47998,24.91016c-13.87549,16.64844-27.96094,25.08984-41.86426,25.08984s-27.98828-8.44141-41.86377-25.08984C236.25635,8.88086,222.30029.5,208.55225.5s-27.7041,8.38086-41.47998,24.91016c-13.87549,16.64844-27.96094,25.08984-41.86426,25.08984s-27.98828-8.44141-41.86377-25.08984C69.56787,8.88086,55.6123.5,41.86377.5S14.15967,8.88086.38379,25.41016l-.38379-.32031C13.87549,8.44141,27.96045,0,41.86377,0s27.98877,8.44141,41.86426,25.08984c13.77588,16.5293,27.73193,24.91016,41.47998,24.91016s27.7041-8.38086,41.48047-24.91016C180.56396,8.44141,194.64893,0,208.55225,0s27.98877,8.44141,41.86426,25.08984c13.77588,16.5293,27.73193,24.91016,41.47998,24.91016s27.7041-8.38086,41.48047-24.91016c13.875-16.64844,27.96045-25.08984,41.86377-25.08984s27.98877,8.44141,41.86426,25.08984c13.77588,16.5293,27.73193,24.91016,41.47998,24.91016s27.7041-8.38086,41.48047-24.91016c13.875-16.64844,27.96045-25.08984,41.86377-25.08984s27.98877,8.44141,41.86426,25.08984c13.77588,16.5293,27.73193,24.91016,41.47998,24.91016s27.7041-8.38086,41.48047-24.91016c13.87549-16.64844,27.96045-25.08984,41.86377-25.08984s27.98828,8.44141,41.86426,25.08984c13.77539,16.5293,27.73145,24.91016,41.47949,24.91016,13.74902,0,27.70508-8.38086,41.48047-24.91016l.38477.32031c-13.87598,16.64844-27.96094,25.08984-41.86523,25.08984Z"/>
</svg>