<?xml version="1.0" encoding="UTF-8"?>
<svg id="_レイヤー_1" data-name="レイヤー_1" xmlns="http://www.w3.org/2000/svg" xmlns:xlink="http://www.w3.org/1999/xlink" version="1.1" viewBox="0 0 39 80">
  <!-- Generator: Adobe Illustrator 30.0.0, SVG Export Plug-In . SVG Version: 2.1.1 Build 123)  -->
  <defs>
    <style>
      .st0 {
        fill: url(#_名称未設定グラデーション_94);
      }
    </style>
    <linearGradient id="_名称未設定グラデーション_94" data-name="名称未設定グラデーション 94" x1="19.49999" y1="2" x2="19.49999" y2="82" gradientTransform="translate(0 82) scale(1 -1)" gradientUnits="userSpaceOnUse">
      <stop offset=".31423" stop-color="#f39d5f"/>
      <stop offset=".45526" stop-color="#c4c4c4"/>
    </linearGradient>
  </defs>
  <path class="st0" d="M11.4889.04223c1.6467,5.25146,3.6867,10.41227,4.528,15.89487.2553.2564,5.5721-1.6822,6.0408-2.452.3156-.5183.0069-2.4097-.2184-3.0018-.1944-.51084-.6443-.4561-.9133-.86126-.601-.90503-.1382-4.4195.3971-5.38411.4156-.74894,2.785-2.7782,3.596-2.69661,1.3283.77069,3.1454,2.37656,3.4478,3.90116.0858.43254-.1628,4.12645-.3019,4.49801-.1251.33451-.6381.20711-.7527.81431-.4495,2.3821.0334,2.7737,1.8468,3.711,1.1201.5789,3.9732,1.3582,4.6737,1.8658.866.6275,1.7675,3.474,1.7739,4.5252.0347,5.694,2.388,9.57,2.7757,14.8731.1015,1.3896-.1015,2.8917-.0081,4.2971.2185,3.2883,2.1993,6.3954-2.2608,7.6972-.0633-1.0229.8756-.9607,1.1314-2.0095.132-.5415.1547-2.0154-.6347-1.3996-.417.3253-.0566,1.7023-.9986,1.8949-.2357-.1873-.0759-2.9577.0062-3.396.0946-.5049.516-.7575.6371-1.1349.5344-1.6656-3.0804-9.5773-2.7841-12.1172l-1.6278-4.0378c-.8788,3.5327-.3715,6.3855.6855,9.7777,1.4951,4.7986,1.4963,6.3595,2.1017,11.2606.0938.7596.7571,2.2714.7352,2.7835-.0069.1622-.4966.0316-.5389.5122-.0747.8479.3932,1.5796.4445,2.3173.0644.9245-.3883,2.0984.1036,3.1959l-2.2828,1.6131c-.3167,3.0668.7372,5.9891.516,9.0397-.1932,2.6647-1.958,7.5337-1.5184,9.8342.255,1.3341,4.9765.3497,3.3453,2.915-1.8818.1533-4.9764,2.2789-6.3228.5578.1625-2.4731.5875-5.0429.4798-7.5251-.0768-1.7693-.6512-3.5818-.7748-5.2772-.2096-2.8762.752-6.2962-.7919-9.0438-.3015-.5366-1.7897-1.2293-1.9036-1.8425-.0599-.3226.2564-.9572.216-1.4843-.0854-1.1154-.464-2.2217-.2762-3.4051-.6642-.0603-.4127-.0253-.4924.3786-.3391,1.7189.3006,3.5274-.9117,5.1466-.6544.8741-1.8619.9236-2.8526,1.0446.2991,1.409-.8161,2.7205-1.0014,3.9141-.2451,1.5785.259,4.2208.2473,6.0517-.0246,3.88-.18,4.0186.6797,7.8708.4363,1.9547.2979,5.2-2.5307,4.3058-.0951-.0301-1.4082-1.2948-1.4327-1.3918-.3301-1.3069.7991-1.2539.9714-1.7527.613-1.7755-1.5304-7.1528-1.9009-9.3661-.2337-1.3964-.3392-2.9254-.3232-4.344l-2.3224,8.3861c-1.3787,3.097-1.8843,7.0574-6.28738,5.6858-1.77635-.5533-4.27572-8.1008-4.70424-10.037-.69154-.7032-2.12239-9.0455-2.47372-11.7671C-.76319,43.3404.1917,31.7608,2.20006,20.3524c-1.22717-1.5612-1.28197-4.2865,1.14573-4.3989l.52211-1.3986.29235-.9215C5.36184,8.77104,7.87595,4.30068,10.9175.35992c.1603-.20779-.0053-.46171.5714-.31769ZM18.5248,38.391c-.1195-1.2948,1.0646-2.8063,1.2426-3.9269.5572-3.5072-.7019-6.9621-1.9232-10.1485-.1223-.3191-.1472-.7409-.5716-.8109.6966,3.7977.6242,7.651.741,11.4894.0183.6029.2566,1.1554.2836,1.7566.0273.6092-.7453,1.8302.2276,1.6403Z"/>
</svg>